<?xml version="1.0" standalone="no"?> 
<!DOCTYPE svg PUBLIC "-//W3C//DTD SVG 1.1//EN" "http://www.w3.org/Graphics/SVG/1.1/DTD/svg11.dtd" >
<svg xmlns="http://www.w3.org/2000/svg">
<defs>
  <font id="oasicon" horiz-adv-x="1000.637">
    <font-face font-family="oasicon"
      units-per-em="1000.7" ascent="1000.7"
      descent="0" />
    <missing-glyph horiz-adv-x="0" />
    <glyph glyph-name="QQ"
      unicode="&#xEA01;"
      horiz-adv-x="1000.637" d=" M114.201 284.616C159.125 270.68 170.979 321.36 170.979 321.36C174.655 336.059 179.51 350.0650000000001 184.917 363.653C189.702 309.573 216.186 260.833 258.131 221.731C213.55 210.153 182.698 188.659 182.698 163.284C182.698 125.778 248.008 95.2720000000001 328.638 95.2720000000001C387.227 95.2720000000001 437.698 111.356 460.923 134.5830000000001C458.775 134.7220000000001 456.695 135.4830000000001 454.546 135.8310000000001C469.589 134.0970000000001 484.706 132.2240000000002 500.376 132.2240000000002C515.905 132.2240000000002 531.019 134.0970000000002 546.1999999999999 135.8310000000001C543.9119999999999 135.4830000000002 541.9019999999999 134.7220000000001 539.7529999999999 134.5830000000001C563.049 111.3560000000001 613.385 95.2720000000001 671.9689999999999 95.2720000000001C752.5999999999999 95.2720000000001 817.9089999999999 125.778 817.9089999999999 163.284C817.9089999999999 188.659 786.9869999999999 210.153 742.6149999999999 221.731C784.4899999999999 260.833 810.9089999999999 309.573 815.6899999999999 363.653C821.0959999999999 350.0650000000001 826.0219999999999 336.059 829.698 321.36C829.698 321.36 841.552 270.6800000000001 886.476 284.616C919.685 294.876 939.518 423.278 811.67 521.242C810.49 543.2189999999999 784.356 595.771 774.8539999999999 607.2819999999999C775.4809999999999 614.9079999999999 775.7539999999999 622.327 775.7539999999999 629.814C775.7539999999999 781.9269999999999 652.483 905.405 500.3749999999999 905.405C348.1219999999999 905.405 224.7109999999999 781.9269999999999 224.7109999999999 629.814C224.7109999999999 622.534 225.1979999999999 615.1869999999999 225.8199999999999 608.1129999999999C217.3629999999999 593.2769999999999 197.3959999999999 555.3539999999999 192.8889999999999 524.0149999999999C60.746 425.704 80.574 295.015 114.201 284.616z" />
    <glyph glyph-name="account-pwd"
      unicode="&#xEA02;"
      horiz-adv-x="1000.637" d=" M494.969 558.082L355.483 393.999L356.737 390.1420000000001L562.138 431.4920000000001V301.0100000000001L355.4830000000001 337.2150000000002L354.1320000000001 333.2930000000001L494.9680000000001 174.3870000000001L379.9860000000001 107.2170000000001L306.3830000000001 307.4730000000001L303.7790000000001 306.1550000000001L228.8270000000001 107.2170000000001L117.7350000000001 174.3870000000001L255.9650000000001 335.899V338.4690000000001L53.14 301.009V431.491L253.425 391.427L254.68 393.999L117.736 556.827L232.718 622.71L305.033 425.027H307.637L381.303 622.7099999999999L494.969 558.082z M295.811 216.802C298.071 215.548 300.516 214.609 302.872 213.3530000000001C300.516 214.609 298.07 215.548 295.811 216.802z M480.315 55.544H947.497V727.2470000000001L931.277 743.435L745.798 928.946L729.578 945.135H227.856V705.347C245.581 711.968 296.69 738.04 315.763 741.394V859.862H636.21C718.344 859.862 678.784 652.986 678.784 652.986S856.702 720.188 859.1469999999999 633.1279999999999V144.298H593.354L480.315 55.544z" />
    <glyph glyph-name="add"
      unicode="&#xEA03;"
      horiz-adv-x="1000.637" d=" M931.268 572.164L572.143 572.164L572.143 931.288L428.493 931.288L428.493 572.164L69.369 572.164L69.369 428.515L428.493 428.515L428.493 69.39L572.143 69.39L572.143 428.515L931.268 428.515z" />
    <glyph glyph-name="additem"
      unicode="&#xEA04;"
      horiz-adv-x="1000.637" d=" M771.704 934.355H228.986C139.047 934.355 66.172 861.428 66.172 771.54V229.035C66.172 139.146 139.046 66.324 228.986 66.324H771.705C861.5920000000001 66.324 934.466 139.1479999999999 934.467 229.035V771.539C934.466 861.428 861.592 934.249 771.704 934.355zM713.769 429.12H571.471V286.8190000000001C571.471 247.6310000000001 539.646 215.8090000000001 500.318 215.8090000000001C461.062 215.8090000000001 429.169 247.6310000000001 429.169 286.8190000000001V429.12H286.869C247.611 429.12 215.721 460.944 215.721 500.27C215.721 539.457 247.611 571.418 286.869 571.418H429.168V713.7180000000001C429.168 752.907 461.061 784.868 500.318 784.868C539.645 784.868 571.47 752.907 571.47 713.7180000000001V571.418H713.768C753.0980000000001 571.418 784.917 539.456 784.917 500.27C784.919 460.9450000000001 753.099 429.12 713.769 429.12z" />
    <glyph glyph-name="all-fold"
      unicode="&#xEA05;"
      horiz-adv-x="1000.637" d=" M898.694 898.528C860.764 936.457 810.326 957.381 756.6139999999999 957.444H244.072C227.234 957.444 210.88 955.351 195.24 951.432V696.548H412.9790000000001V771.662H617.9340000000001V696.548H881.3430000000001V625.804H617.935V564.991H412.979V625.804H195.24V625.8019999999999H124.497V917.902C75.137 881.245 43.09 822.527 43.09 756.461V244.1180000000001C43.09 190.442 63.997 139.989 101.96 102.0510000000001C139.914 64.1210000000001 190.383 43.235 244.072 43.235H756.614C810.283 43.235 860.74 64.124 898.6880000000001 102.057C936.6430000000003 139.997 957.546 190.448 957.546 244.1190000000001V756.4590000000001C957.547 810.121 936.647 860.575 898.694 898.528z" />
    <glyph glyph-name="all-unfold"
      unicode="&#xEA06;"
      horiz-adv-x="1000.637" d=" M898.93 898.764C860.981 936.716 810.512 957.652 756.766 957.715H243.919C234.308 957.715 224.855 957.022 215.599 955.712V739.6320000000001H366.9310000000001V791.838H509.3770000000001V648.199H366.931V690.4649999999999H326.001V526.497H540.582V578.704H683.025V435.063H540.582V477.331H402.212V315.2440000000001H691.7570000000001V367.4500000000001H834.2040000000001V223.8090000000001H691.758V266.0760000000002H402.212L402.212 266.0760000000002H353.044L353.044 266.0760000000002L353.044 266.0760000000002V315.2440000000002L353.044 315.2440000000002V477.33H326.001V477.3280000000001H276.834V477.33V526.4960000000001V690.4649999999999H215.5989999999999V690.4649999999999H166.4309999999999V690.4649999999999L166.4309999999999 690.4649999999999V739.632L166.4309999999999 739.632V942.179C93.901 911.779 42.819 840.052 42.819 756.613V243.967C42.819 190.259 63.738 139.776 101.724 101.8149999999999C139.701 63.8639999999999 190.199 42.963 243.919 42.963H756.765C810.466 42.963 860.953 63.8639999999999 898.923 101.8199999999999C936.902 139.7829999999999 957.818 190.2639999999999 957.818 243.9659999999999V756.612C957.818 810.306 936.906 860.789 898.93 898.764z" />
    <glyph glyph-name="all"
      unicode="&#xEA07;"
      horiz-adv-x="1000.637" d=" M528.827 402.9690000000001C513.371 389.6030000000001 488.317 389.6030000000001 472.875 402.9690000000001L104.542 636.111C89.093 649.479 89.093 671.154 104.542 684.5219999999999L472.876 917.662C488.331 931.03 513.372 931.03 528.828 917.662L897.154 684.5219999999999C912.609 671.154 912.609 649.479 897.154 636.111L528.827 402.9690000000001z M873.521 338.885C873.6179999999999 338.727 873.644 338.579 873.723 338.42C873.644 338.267 873.6179999999999 338.1239999999999 873.521 337.9649999999999L508.37 106.837L506.218 105.478L504.336 103.842C503.138 102.808 501.773 102.595 500.839 102.595C499.901 102.595 498.53 102.808 497.343 103.842L495.455 105.4739999999999L128.163 337.956C128.068 338.106 128.022 338.2670000000001 127.95 338.4200000000001C128.022 338.5790000000001 128.068 338.7430000000001 128.163 338.8940000000001L245.8690000000001 419.6570000000002L159.44 429.6470000000002L81.937 383.8600000000002L80.048 382.2260000000001C66.516 370.5170000000002 59.401 355.3720000000001 58.527 340.0110000000001H58.354C58.354 339.4790000000001 58.427 338.9520000000001 58.442 338.4200000000001C58.427 337.898 58.354 337.3700000000001 58.354 336.8350000000001H58.527C59.4 321.476 66.516 306.3330000000001 80.045 294.6220000000001L81.938 292.9850000000002L450.5940000000001 59.6400000000001C464.3290000000001 48.6860000000002 482.039 42.6860000000002 500.84 42.6860000000002C519.625 42.6860000000002 537.349 48.6860000000002 551.07 59.6400000000001L919.738 292.9850000000002L921.62 294.6180000000002C934.766 305.9900000000001 942.279 320.8850000000002 943.171 336.8350000000002H943.355C943.355 337.3700000000001 943.277 337.8900000000001 943.259 338.4160000000002C943.277 338.9520000000001 943.355 339.4750000000002 943.355 340.0110000000002H943.171C942.272 355.9600000000002 934.766 370.8540000000002 921.62 382.2260000000003L919.738 383.8600000000003L842.235 429.6470000000003L755.797 419.6570000000003L873.521 338.885z M943.17 518.3199999999999C941.985 533.855 934.461 548.3199999999999 921.619 559.428L919.737 561.062L845.8349999999999 607.8389999999999H728.563L873.376 516.1800000000001L508.37 285.1470000000001L506.218 283.788L504.336 282.1570000000001C503.138 281.1190000000001 501.773 280.9050000000001 500.839 280.9050000000001C499.901 280.9050000000001 498.53 281.1190000000002 497.343 282.1570000000001L495.455 283.784L128.295 516.18L273.108 607.8389999999999H155.838L81.937 561.0629999999999L80.048 559.4289999999999C66.84 547.9989999999999 59.685 533.3019999999999 58.538 518.3209999999999H58.353C58.353 517.608 58.385 516.895 58.413 516.1819999999999C58.386 515.4689999999998 58.353 514.7559999999999 58.353 514.0429999999999H58.538C59.684 499.0629999999999 66.84 484.3629999999999 80.044 472.9339999999999L81.937 471.3009999999998L450.593 237.9509999999998C464.328 226.9969999999999 482.038 220.9969999999999 500.839 220.9969999999999C519.625 220.9969999999999 537.348 226.9969999999999 551.069 237.9509999999998L919.737 471.3009999999998L921.619 472.9299999999998C934.4609999999998 484.0379999999998 941.998 498.5079999999998 943.1729999999998 514.0429999999999H943.354C943.353 514.7499999999998 943.32 515.4519999999998 943.2929999999998 516.1549999999999C943.3189999999998 516.8759999999999 943.354 517.5949999999998 943.354 518.3189999999998H943.17z" />
    <glyph glyph-name="anchor"
      unicode="&#xEA08;"
      horiz-adv-x="1000.637" d=" M500.318 65.3870000000001C259.5220000000001 65.3870000000001 64.288 260.0900000000001 64.288 500.352L64.288 500.352V609.094L282.3030000000001 391.61H192.511C231.686 281.9110000000001 327.8650000000001 199.5160000000001 445.761 179.611V445.956H391.3110000000001C361.1320000000001 445.956 336.807 470.332 336.807 500.352C336.807 530.372 361.238 554.75 391.3110000000001 554.75H445.814V619.1270000000001C382.4220000000001 641.562 336.807 701.308 336.807 772.2860000000001C336.807 854.787 398.4960000000001 922.33 478.336 933.109C485.468 934.574 492.814 935.292 500.318 935.292C507.929 935.292 515.169 934.52 522.194 933.109C602.087 922.331 663.829 854.787 663.829 772.206C663.829 701.3090000000001 618.1619999999999 641.562 554.822 619.0740000000001V554.697H609.326C639.453 554.697 663.8290000000001 530.321 663.8290000000001 500.301C663.8290000000001 470.2810000000001 639.4530000000001 445.9020000000001 609.326 445.9020000000001H554.822V179.557C672.771 199.4110000000001 769.005 281.86 808.073 391.558H718.333L936.349 609.0409999999999V500.352L936.349 500.352C936.348 260.0900000000001 741.1139999999999 65.3870000000001 500.318 65.3870000000001zM500.318 826.55C470.2450000000001 826.55 445.814 802.251 445.814 772.205C445.814 742.185 470.245 717.835 500.318 717.835C530.391 717.835 554.822 742.186 554.822 772.205C554.822 802.251 530.391 826.55 500.318 826.55z" />
    <glyph glyph-name="arrow-down"
      unicode="&#xEA09;"
      horiz-adv-x="1000.637" d=" M59.659 741.506L500.3170000000001 260.5700000000001L940.976 741.506z" />
    <glyph glyph-name="arrow-left"
      unicode="&#xEA0A;"
      horiz-adv-x="1000.637" d=" M685.623 884.031L276.681 509.339L685.623 134.646z" />
    <glyph glyph-name="arrow-right"
      unicode="&#xEA0B;"
      horiz-adv-x="1000.637" d=" M337.209 125.6470000000001L746.151 500.34L337.209 875.032z" />
    <glyph glyph-name="arrow-up"
      unicode="&#xEA0C;"
      horiz-adv-x="1000.637" d=" M940.976 262.953L500.318 743.891L59.659 262.953z" />
    <glyph glyph-name="asc"
      unicode="&#xEA0D;"
      horiz-adv-x="1000.637" d=" M177.58 294.339L500.319 706.3389999999999L823.057 294.339z" />
    <glyph glyph-name="audio"
      unicode="&#xEA0E;"
      horiz-adv-x="1000.637" d=" M903.194 927.506L367.161 821.9639999999999V302.7360000000001C338.473 325.3520000000001 299.942 339.4880000000001 257.378 339.4880000000001C169.063 339.4880000000001 97.443 279.9120000000001 97.443 206.3040000000001C97.443 132.8000000000001 169.063 73.1710000000001 257.378 73.1710000000001C345.174 73.1710000000001 416.267 132.0160000000001 417.211 204.8900000000001L419.095 203.7910000000001V605.855L847.911 662.867L849.169 356.764C820.584 379.1180000000001 782.261 393.0950000000001 739.856 393.0950000000001C651.487 393.0950000000001 579.868 333.5210000000001 579.868 259.913C579.868 186.41 651.4870000000001 126.78 739.8560000000001 126.78C827.9140000000001 126.78 899.2180000000001 185.939 899.7420000000001 259.127H903.195V927.506L903.194 927.506z" />
    <glyph glyph-name="basic-info"
      unicode="&#xEA0F;"
      horiz-adv-x="1000.637" d=" M637.505 1000.339H71.831L71.709 0.664L928.9280000000002 0.3389999999999V708.754L637.505 1000.339zM132.053 64.8730000000001V941.217L552.788 941.176C667.371 941.217 612.195 688.246 612.195 688.246S866.916 752.699 870.2520000000001 631.238L870.3750000000001 64.8729999999999H132.053zM528.863 807.3050000000001H239.149V724.664L528.823 724.623L528.863 807.3050000000001zM239.068 547.621L761.692 547.5799999999999V630.262H239.068V547.621zM239.068 193.454L761.366 193.535L761.692 276.096H239.068V193.454zM239.149 453.261L239.068 370.6190000000001H761.692L761.489 453.179L239.149 453.261z" />
    <glyph glyph-name="browser"
      unicode="&#xEA10;"
      horiz-adv-x="1000.637" d=" M300.394 673.72C351.392 732.504 405.24 784.708 459.088 828.576C284.7120000000001 813.3299999999999 147.732 667.908 147.732 489.803C147.732 480.1519999999999 148.391 470.7190000000001 149.213 461.178C188.914 532.079 240.185 604.517 300.394 673.72z M652.165 788.764C606.5419999999999 761.566 556.093 723.785 504.164 675.914C578.5749999999999 669.717 632.424 619.323 655.894 550.12H385.4440000000001C301.7100000000001 448.6760000000001 248.6290000000001 353.1510000000001 222.0890000000001 278.4660000000001C274.9500000000001 212.1140000000002 351.9400000000001 165.8330000000001 439.8410000000001 153.1120000000001L439.8410000000001 153.1120000000001L443.0770000000001 152.5630000000001C458.1010000000001 150.5890000000001 473.3460000000001 149.0530000000001 488.9730000000001 149.0530000000001C630.0110000000001 149.0530000000001 751.143 234.7070000000001 803.181 356.3310000000002H620.799C586.855 323.1020000000001 540.3 302.5930000000001 488.973 302.5930000000001C398.221 302.5930000000001 333.186 366.7500000000001 315.858 452.075H673.002H828.351C829.6129999999999 464.5780000000001 830.435 477.189 830.435 489.803C830.435 619.104 758.216 731.189 652.165 788.764z M859.992 913.188C767.649 993.083 532.0749999999999 872.992 333.406 645.097C134.956 416.98 48.644 167.149 140.824 87.528C198.894 36.9680000000001 313.8840000000001 66.47 440.7730000000001 151.904L438.4700000000001 152.234C330.9920000000001 82.263 236.1820000000001 58.1360000000001 188.3110000000001 98.8240000000001C107.2640000000001 167.1490000000001 190.9980000000001 394.4980000000001 375.5190000000001 606.437C559.9309999999999 818.157 775.216 934.189 856.318 865.645C906.492 823.203 893.606 720.33 833.1229999999999 598.047C904.299 739.304 919.324 861.5319999999999 859.992 913.188z" />
    <glyph glyph-name="calendar"
      unicode="&#xEA11;"
      horiz-adv-x="1000.637" d=" M771.612 66.552H229.076C139.175 66.552 66.279 139.34 66.279 229.1900000000001V771.487C66.279 842.213 111.732 901.784 174.828 924.193V852.86C174.828 807.9359999999999 211.224 771.487 256.201 771.487C301.1260000000001 771.487 337.574 807.883 337.574 852.86V934.127H663.064V852.808C663.064 807.884 699.512 771.435 744.437 771.435C789.413 771.435 825.808 807.829 825.808 852.808V924.141C888.905 901.732 934.358 842.159 934.358 771.4359999999999V229.1900000000001C934.357 139.34 861.4599999999999 66.552 771.612 66.552zM825.807 663.045H174.828V229.1900000000001C174.828 199.311 199.038 175.048 229.077 175.048H771.6129999999999C801.545 175.048 825.808 199.311 825.808 229.1900000000001V663.045zM608.814 391.909H717.3109999999999V283.4650000000001H608.814V391.909zM608.814 554.6H717.3109999999999V446.1040000000001H608.814V554.6zM446.069 391.909H554.567V283.4650000000001H446.069V391.909zM446.069 554.6H554.567V446.1040000000001H446.069V554.6zM283.324 391.909H391.8210000000001V283.4650000000001H283.324V391.909zM283.324 554.6H391.8210000000001V446.1040000000001H283.324V554.6zM744.4359999999999 825.684C729.4949999999999 825.684 717.3109999999999 837.843 717.3109999999999 852.809V934.127H771.612V852.808C771.612 837.842 759.376 825.684 744.4359999999999 825.684zM256.2000000000001 825.684C241.207 825.684 229.076 837.843 229.076 852.809V934.127H283.3240000000001V852.808C283.324 837.842 271.194 825.684 256.2000000000001 825.684z" />
    <glyph glyph-name="calendarNew"
      unicode="&#xEA12;"
      horiz-adv-x="1000.636" d=" M924.157 897.521H96.554C72.314 897.521 52.481 877.956 52.481 854.042V110.043C52.481 86.129 72.314 66.562 96.554 66.562H924.156C948.396 66.562 968.23 86.128 968.23 110.043V854.042C968.231 877.957 948.397 897.521 924.157 897.521zM834.3919999999999 211.4970000000001H186.319V619.73H834.3919999999999V211.4970000000001z M272.4340000000001 476.607C272.4340000000001 449.5919914620268 294.6326175338897 427.692 322.016 427.692C349.3993824661104 427.692 371.598 449.5919914620268 371.598 476.607C371.598 503.6220085379732 349.3993824661104 525.522 322.016 525.522C294.6326175338897 525.522 272.4340000000001 503.6220085379732 272.4340000000001 476.607z M448.7270000000001 476.607C448.7270000000001 449.5919914620268 470.9256175338896 427.692 498.309 427.692C525.6923824661104 427.692 547.891 449.5919914620268 547.891 476.607C547.891 503.6220085379732 525.6923824661104 525.522 498.309 525.522C470.9256175338896 525.522 448.7270000000001 503.6220085379732 448.7270000000001 476.607z M625.02 476.607C625.02 449.5919914620268 647.2190652491397 427.692 674.603 427.692C701.9869347508602 427.692 724.1859999999999 449.5919914620268 724.1859999999999 476.607C724.1859999999999 503.6220085379732 701.9869347508602 525.522 674.603 525.522C647.2190652491397 525.522 625.02 503.6220085379732 625.02 476.607z M272.4340000000001 335.2960000000001C272.4340000000001 308.280439177277 294.6326175338897 286.3800000000001 322.016 286.3800000000001C349.3993824661104 286.3800000000001 371.598 308.280439177277 371.598 335.2960000000001C371.598 362.3115608227231 349.3993824661104 384.212 322.016 384.212C294.6326175338897 384.212 272.4340000000001 362.3115608227231 272.4340000000001 335.2960000000001z M448.7270000000001 335.2960000000001C448.7270000000001 308.280439177277 470.9256175338896 286.3800000000001 498.309 286.3800000000001C525.6923824661104 286.3800000000001 547.891 308.280439177277 547.891 335.2960000000001C547.891 362.3115608227231 525.6923824661104 384.212 498.309 384.212C470.9256175338896 384.212 448.7270000000001 362.3115608227231 448.7270000000001 335.2960000000001z M625.02 335.2960000000001C625.02 308.280439177277 647.2190652491397 286.3800000000001 674.603 286.3800000000001C701.9869347508602 286.3800000000001 724.1859999999999 308.280439177277 724.1859999999999 335.2960000000001C724.1859999999999 362.3115608227231 701.9869347508602 384.212 674.603 384.212C647.2190652491397 384.212 625.02 362.3115608227231 625.02 335.2960000000001z" />
    <glyph glyph-name="card"
      unicode="&#xEA13;"
      horiz-adv-x="1000.637" d=" M776.562 58.538H224.075C132.514 58.538 58.328 132.669 58.328 224.174V776.448C58.328 867.927 132.515 942.14 224.075 942.14H776.5619999999999C868.0689999999998 942.14 942.3079999999998 867.981 942.3079999999998 776.448V224.174C942.308 132.669 868.069 58.538 776.562 58.538zM831.812 776.448C831.812 806.932 807.046 831.697 776.562 831.697H224.075C193.509 831.697 168.825 806.987 168.825 776.448V224.174C168.825 193.744 193.509 169.035 224.075 169.035H776.5619999999999C807.0459999999999 169.035 831.8119999999999 193.7439999999999 831.8119999999999 224.174V776.448zM555.5659999999999 445.063H721.313V279.427H555.5659999999999V445.063zM610.814 334.6760000000001H666.064V389.8140000000001H610.814V334.6760000000001zM555.5659999999999 721.2H721.313V555.561H555.5659999999999V721.2zM610.814 610.755H666.064V666.004H610.814V610.755zM279.3230000000001 445.063H445.0700000000001V279.427H279.3230000000001V445.063zM334.5710000000001 334.6760000000001H389.8200000000001V389.8140000000001H334.5710000000001V334.6760000000001zM279.3230000000001 721.2H445.0700000000001V555.561H279.3230000000001V721.2zM334.5710000000001 610.755H389.8200000000001V666.004H334.5710000000001V610.755z" />
    <glyph glyph-name="chaining"
      unicode="&#xEA14;"
      horiz-adv-x="1000.637" d=" M762.918 305.4450000000001H709.997C640.954 305.4450000000001 582.814 349.629 560.954 411.0250000000001H762.9179999999999C792.1159999999999 411.0250000000001 815.8379999999999 434.6440000000001 815.8379999999999 463.7910000000001V569.371C815.8379999999999 598.545 792.1159999999999 622.16 762.9179999999999 622.16H560.954C582.814 683.53 640.954 727.768 709.997 727.768H762.918C850.565 727.768 921.677 656.865 921.677 569.371V463.79C921.677 376.347 850.566 305.4450000000001 762.918 305.4450000000001zM286.639 516.607C286.639 545.727 310.308 569.372 339.5590000000001 569.372H657.077C686.328 569.372 709.997 545.727 709.997 516.607C709.997 487.433 686.328 463.7909999999999 657.077 463.7909999999999H339.5590000000001C310.3090000000001 463.79 286.639 487.433 286.639 516.607zM180.801 569.371V463.79C180.801 434.644 204.47 411.024 233.721 411.024H435.684C413.772 349.6280000000001 355.684 305.444 286.64 305.444H233.72C146.071 305.444 74.96 376.346 74.96 463.79V569.371C74.96 656.865 146.071 727.768 233.72 727.768H286.639C355.683 727.768 413.771 683.53 435.683 622.16H233.72C204.47 622.1600000000001 180.801 598.5450000000001 180.801 569.371z" />
    <glyph glyph-name="click"
      unicode="&#xEA15;"
      horiz-adv-x="1000.637" d=" M88.009 912.744L890.023 645.79L676.403 533.432L587.4010000000001 486.574L658.5930000000001 415.522L895.0980000000001 179.3439999999999L821.7370000000001 105.756L585.455 342.384L514.282 413.659L467.413 324.5560000000001L355.403 111.303L88.009 912.744M51.431 1000.339C46.23 1000.339 40.787 999.535 35.362 997.913C8.721 989.352 -5.619 960.884 2.949 933.572L301.937 37.3680000000001C305.539 24.86 314.228 13.2950000000001 326.714 6.4580000000001C334.35 2.3020000000001 342.4460000000001 0.3390000000001 350.552 0.3390000000001C368.707 0.3390000000001 386.302 10.4090000000001 395.0010000000001 27.2960000000001L532.931 289.9620000000001L783.3340000000001 39.0870000000001L786.2 36.5490000000001C795.9430000000001 26.8260000000001 808.9000000000001 21.9750000000001 821.8570000000001 21.9750000000001C834.816 21.9750000000001 847.772 26.8270000000001 857.3720000000001 36.5490000000001L964.06 143.5830000000001C983.8560000000002 163.3680000000001 983.8560000000002 194.9620000000001 964.06 214.7570000000001L710.7700000000001 467.7L973.086 605.638C984.652 612.117 993.23 621.368 997.508 634.797C1006.534 661.407 991.714 689.763 965.924 698.3240000000001L66.598 997.913C61.716 999.535 56.64 1000.339 51.431 1000.339L51.431 1000.339z" />
    <glyph glyph-name="close"
      unicode="&#xEA16;"
      horiz-adv-x="1000.637" d=" M780.641 890.439C804.7679999999999 866.254 848.4549999999999 822.565 872.641 798.385C813.168 738.799 615.584 541.386 615.584 541.386L589.314 515.06L615.584 488.735L872.641 231.794L780.641 139.682C720.885 199.438 523.7 396.624 523.7 396.624L497.374 423.062L471.048 396.6800000000001L213.994 139.624C189.867 163.864 146.234 207.61 121.996 231.8480000000001L378.935 488.849L405.206 515.0600000000001L378.935 541.442L121.996 798.385C146.234 822.623 189.756 866.199 213.994 890.381L470.933 633.384L497.259 607.143L523.585 633.384L780.641 890.439z" />
    <glyph glyph-name="comment-msg"
      unicode="&#xEA17;"
      horiz-adv-x="1000.637" d=" M496.121 824.0360000000001L505.677 823.9639999999999C703.564 820.046 862.384 695.311 859.529 545.937C856.564 400.3690000000001 697.486 281.9640000000001 504.689 281.9640000000001L495.023 282.0750000000001C450.578 282.952 407.009 289.9830000000001 365.4550000000001 302.9790000000001L350.7380000000001 307.591L336.6420000000001 301.55L217.581 250.2580000000001C228.052 303.6030000000001 228.71 369.8660000000001 188.804 421.236C156.732 463.595 140.183 511.519 141.062 560.066C144.027 705.595 303.289 824.0360000000001 496.121 824.0360000000001M496.486 890.009H496.121C267.59 890.009 78.82 742.613 75.162 561.3820000000001C74.064 497.825 95.078 435.622 136.303 381.362C162.664 347.4599999999999 159.844 298.327 152.852 263.034L128.688 140.202L243.612 189.702L354.508 237.442C399.283 224.2620000000001 446.112 217.047 493.703 216.134L504.177 216.0980000000001C732.997 216.0980000000001 921.769 363.4570000000001 925.429 544.577C928.945 730.3820000000001 741.161 885.212 506.956 889.8620000000001L496.7789999999999 890.008L496.486 890.009L496.486 890.009z M520.656 646.127L289.941 646.127L289.941 720.972L520.656 720.972z M710.656 514.692L289.941 514.692L289.941 589.5029999999999L710.656 589.5029999999999z M710.656 383.24L289.941 383.24L289.941 458.052L710.656 458.052z" />
    <glyph glyph-name="copy"
      unicode="&#xEA18;"
      horiz-adv-x="1000.637" d=" M673.951 706.395L516.546 863.202L501.6940000000001 877.99H87.695V127.476V65.646H688.761V691.587L673.951 706.395zM627.307 127.476H148.707V819.329H435.671C510.695 819.329 480.499 664.761 480.499 664.761S625.09 704.3779999999999 627.307 624.8779999999999V127.476z M898.133 763.837L743.211 920.245L728.4 935.032H519.385L578.09 876.372H662.424C737.4019999999999 876.372 702.24 727.0360000000001 702.24 727.0360000000001S849.271 761.842 851.488 682.342V184.519H754.1170000000001V122.687H912.941V749.027L898.133 763.837z M87.695 26.86" />
    <glyph glyph-name="data-statistics"
      unicode="&#xEA19;"
      horiz-adv-x="1000.637" d=" M625.331 241.603C625.331 251.298 618.313 259.15 609.716 259.15H390.832C382.234 259.15 375.216 251.298 375.216 241.603V171.29H218.926V118.52H781.6220000000001V171.288H625.331V241.603L625.331 241.603L625.331 241.603L625.331 241.603zM851.805 882.158H148.786C119.661 882.158 96.062 858.58 96.062 829.454V337.294C96.062 308.213 119.617 284.567 148.786 284.567H851.8050000000001C880.8860000000001 284.567 904.575 308.189 904.575 337.294V829.454C904.573 858.56 880.976 882.158 851.805 882.158L851.805 882.158L851.805 882.158L851.805 882.158zM851.805 354.928C851.805 345.212 843.953 337.3590000000001 834.2159999999999 337.3590000000001H166.332C156.595 337.3590000000001 148.786 345.2130000000001 148.786 354.928V811.888C148.786 821.6030000000001 156.595 829.455 166.332 829.455H834.216C843.953 829.455 851.8050000000001 821.627 851.8050000000001 811.888V354.928L851.805 354.928L851.805 354.928L851.805 354.928zM671.739 388.55H766.839V665.379H671.739V388.55L671.739 388.55L671.739 388.55L671.739 388.55zM519.617 388.55H614.717V750.565H519.617V388.55L519.617 388.55L519.617 388.55L519.617 388.55zM234.323 388.55H329.421V495.0099999999999H234.323V388.55L234.323 388.55L234.323 388.55L234.323 388.55zM367.495 388.55H462.595V580.239H367.495V388.55L367.495 388.55L367.495 388.55L367.495 388.55z" />
    <glyph glyph-name="data"
      unicode="&#xEA1A;"
      horiz-adv-x="1000.637" d=" M500.318 67.955C321.286 67.955 176.208 140.558 176.208 230.1140000000001L176.208 230.1140000000001V321.3590000000001C176.208 231.803 321.339 176.0940000000001 500.318 176.0940000000001C679.3249999999999 176.0940000000001 824.427 231.7510000000001 824.427 321.3590000000001V230.1140000000001L824.427 230.1140000000001C824.427 140.558 679.3249999999999 67.955 500.318 67.955zM500.318 230.1140000000001C321.286 230.1140000000001 176.208 302.774 176.208 392.2750000000001V483.441C176.208 393.9660000000001 321.339 338.2060000000002 500.318 338.2060000000002C679.3249999999999 338.2060000000002 824.427 393.9130000000001 824.427 483.4410000000001V392.2750000000001C824.427 302.774 679.3249999999999 230.1140000000001 500.318 230.1140000000001zM500.318 392.275C321.286 392.275 176.208 464.829 176.208 554.382V645.6009999999999C176.208 556.0459999999999 321.339 500.3109999999999 500.318 500.3109999999999C679.3249999999999 500.3109999999999 824.427 556.0459999999999 824.427 645.6009999999999V554.3819999999998C824.427 464.8290000000001 679.3249999999999 392.275 500.318 392.275zM500.318 554.383C321.286 554.383 176.208 626.989 176.208 716.544V770.562C176.208 860.092 321.339 932.723 500.318 932.723C679.3249999999999 932.723 824.427 860.092 824.427 770.562V716.544C824.427 626.989 679.3249999999999 554.383 500.318 554.383z" />
    <glyph glyph-name="delcheck"
      unicode="&#xEA1B;"
      horiz-adv-x="1000.637" d=" M772.427 935.498H228.211C138.022 935.498 64.946 862.399 64.946 772.2860000000001V228.3400000000001C64.946 138.2050000000001 138.021 65.1800000000001 228.211 65.1800000000001H772.427C862.615 65.1800000000001 935.691 138.2050000000001 935.691 228.3400000000001V772.2860000000001C935.691 862.4 862.615 935.498 772.427 935.498zM731.292 384.839C763.19 352.94 763.19 301.257 731.292 269.3559999999999C699.389 237.6169999999999 647.71 237.6169999999999 615.809 269.3559999999999L500.328 384.839L384.846 269.356C352.907 237.617 301.306 237.617 269.2870000000001 269.356C237.4650000000001 301.259 237.4650000000001 352.94 269.2870000000001 384.8390000000001L384.846 500.321L269.2870000000001 615.801C237.4650000000001 647.6600000000001 237.4650000000001 699.264 269.2870000000001 731.202C301.228 763.1 352.908 763.1 384.846 731.202L500.328 615.801L615.809 731.202C647.7099999999999 763.1 699.389 763.1 731.2919999999999 731.202C763.1899999999999 699.2620000000001 763.1899999999999 647.6600000000001 731.2919999999999 615.801L615.809 500.321L731.292 384.839z" />
    <glyph glyph-name="delete"
      unicode="&#xEA1C;"
      horiz-adv-x="1000.637" d=" M854.073 147.5260000000001C825.38 118.8520000000001 778.747 118.8520000000001 749.871 147.5260000000001L500.333 396.2820000000001L250.797 147.5260000000001C221.982 118.8520000000001 175.381 118.8520000000001 146.565 147.5260000000001C117.811 176.3150000000001 117.811 222.8290000000001 146.565 251.624L396.129 500.253L146.626 750.011C117.872 778.6800000000001 117.872 825.315 146.626 854.109C175.442 882.778 222.043 882.778 250.858 854.109L500.333 604.477L749.869 854.109C778.745 882.84 825.378 882.84 854.071 854.109C882.8240000000001 825.315 882.8240000000001 778.803 854.071 750.011L604.536 500.254L854.073 251.624C882.824 222.8290000000001 882.824 176.317 854.073 147.5260000000001z" />
    <glyph glyph-name="delitem"
      unicode="&#xEA1D;"
      horiz-adv-x="1000.637" d=" M772.106 934.986H228.536C138.4549999999999 934.986 65.46 861.9680000000001 65.46 771.966V228.6570000000001C65.46 138.635 138.455 65.692 228.536 65.692H772.106C862.186 65.692 935.18 138.635 935.178 228.6570000000001V771.966C935.178 862.021 862.184 934.986 772.106 934.986zM714.004 429.1430000000001H286.621C247.327 429.1430000000001 215.399 461.001 215.399 500.373C215.399 539.6020000000001 247.326 571.5350000000001 286.621 571.5350000000001H714.0039999999999C753.3789999999999 571.5350000000001 785.2369999999999 539.6020000000001 785.2369999999999 500.373C785.238 461.001 753.379 429.1430000000001 714.004 429.1430000000001z" />
    <glyph glyph-name="desc"
      unicode="&#xEA1E;"
      horiz-adv-x="1000.637" d=" M177.58 706.3389999999999L500.319 294.339L823.057 706.3389999999999z" />
    <glyph glyph-name="detail"
      unicode="&#xEA1F;"
      horiz-adv-x="1000.637" d=" M774.065 938.146H226.573C135.842 938.146 62.325 864.604 62.325 773.954V226.6740000000001C62.325 136.1040000000002 135.842 62.532 226.573 62.532H774.0649999999999C864.7969999999999 62.532 938.3129999999998 136.1040000000001 938.3129999999998 226.6740000000001V773.9540000000001C938.313 864.604 864.797 938.146 774.065 938.146zM500.319 253.164H188.704V331.068H500.319V253.164zM811.936 408.8210000000001H188.704V486.724H811.935V408.8210000000001zM811.936 564.629H188.704V642.532H811.935V564.629zM811.936 720.36H188.704V798.265H811.935V720.36z" />
    <glyph glyph-name="details"
      unicode="&#xEA20;"
      horiz-adv-x="1000.637" d=" M622.596 946.089H118.34L118.21 54.8939999999999L882.384 54.5889999999999L882.427 686.126L622.596 946.089zM171.97 112.136V893.417L547.071 893.33C649.2370000000001 893.417 600.047 667.8430000000001 600.047 667.8430000000001S827.146 725.303 830.1500000000001 617.043L830.2360000000001 112.1360000000001H171.97z M267.476 774.013L267.476 700.317L525.696 700.317L525.739 774.013z M733.337 616.173L267.432 616.173L267.432 542.519L733.337 542.476z M733.337 300.447L267.432 300.447L267.432 226.794L733.03 226.794z M733.162 458.288L267.476 458.376L267.432 384.677L733.337 384.722z" />
    <glyph glyph-name="disable"
      unicode="&#xEA21;"
      horiz-adv-x="1000.637" d=" M749.337 898.728C251.589 898.728 251.589 898.728 251.589 898.728C168.991 898.728 102.025 831.7149999999999 102.025 749.358C102.025 251.322 102.025 251.322 102.025 251.322C102.025 168.728 168.992 101.951 251.589 101.951C749.337 101.951 749.337 101.951 749.337 101.951C831.694 101.951 898.612 168.7280000000001 898.612 251.322C898.612 749.358 898.612 749.358 898.612 749.358C898.613 831.715 831.695 898.728 749.337 898.728zM744.978 320.733L679.924 255.679L500.319 435.285L320.713 255.68L255.659 320.7339999999999L435.264 500.3389999999999L255.659 679.944L320.713 744.998L500.318 565.393L679.924 744.998L744.978 679.944L565.372 500.339L744.978 320.733z" />
    <glyph glyph-name="dot"
      unicode="&#xEA22;"
      horiz-adv-x="1000.637" d=" M59.6580000000001 501.038C59.6580000000001 257.6687544243124 256.9477544243125 60.379 500.3170000000001 60.379C743.6862455756876 60.379 940.976 257.6687544243124 940.976 501.038C940.976 744.4072455756876 743.6862455756876 941.697 500.3170000000001 941.697C256.9477544243125 941.697 59.6580000000001 744.4072455756876 59.6580000000001 501.038z" />
    <glyph glyph-name="down-list"
      unicode="&#xEA23;"
      horiz-adv-x="1000.637" d=" M769.969 953.415H223.836C133.33 953.415 60 880.083 60 789.577V243.661C60 153.315 133.33 79.9309999999999 223.836 79.9309999999999H769.969C860.421 79.9309999999999 933.807 153.3169999999999 933.807 243.661V789.576C933.807 880.029 860.421 953.415 769.969 953.415zM336.814 214.762H193.824V357.752H336.814V214.762zM336.814 445.2440000000001H193.824V588.097H336.814V445.2440000000001zM336.814 676.594H193.824V819.582H336.814V676.594zM801.464 214.762H443.986V357.752H801.4639999999999V214.762zM801.464 445.2440000000001H443.986V588.097H801.4639999999999V445.2440000000001zM801.464 676.594H443.986V819.582H801.4639999999999V676.594z" />
    <glyph glyph-name="down"
      unicode="&#xEA24;"
      horiz-adv-x="1000.637" d=" M190.689 771.018C155.186 806.52 97.066 805.943 61.564 770.441C36.417 745.323 29.435 709.258 39.908 677.691C44.227 664.643 51.151 652.307 61.563 641.922L190.082 513.404C190.14 513.344 190.186 513.3299999999999 190.245 513.242L500.165 203.321L810.278 513.435L938.797 641.954C974.299 677.4549999999999 974.299 734.969 938.797 770.471C903.295 805.973 845.78 805.9739999999999 810.277 770.471L500.757 460.949L190.689 771.018z" />
    <glyph glyph-name="downfload"
      unicode="&#xEA25;"
      horiz-adv-x="1000.637" d=" M934.062 229.4060000000001C934.062 139.662 861.259 66.859 771.408 66.859H676.2090000000001L723.9140000000001 114.51C741.3340000000001 132.09 754.2540000000001 152.898 762.1430000000001 175.187H771.4090000000001C801.3800000000001 175.187 825.6280000000002 199.439 825.6280000000002 229.4060000000001V717.158H175.01V229.406C175.01 199.439 199.207 175.1869999999999 229.228 175.1869999999999H238.44C246.435 152.8449999999999 259.249 131.983 276.828 114.406L324.427 66.8589999999999H229.2279999999999C139.3759999999999 66.8589999999999 66.5739999999999 139.6619999999999 66.5739999999999 229.406V771.322C66.5739999999999 861.094 139.376 933.924 229.2279999999999 933.924H771.4079999999998C861.2599999999998 933.924 934.0619999999998 861.148 934.0619999999998 771.322V229.4060000000001zM229.228 879.705C199.314 879.705 175.01 855.457 175.01 825.487C175.01 795.4929999999999 199.207 771.269 229.2280000000001 771.269C259.2490000000001 771.269 283.4460000000001 795.4929999999999 283.4460000000001 825.487C283.4460000000001 855.457 259.1430000000001 879.705 229.228 879.705zM391.882 283.625H446.099V446.174C446.099 476.1149999999999 470.403 500.3919999999999 500.317 500.3919999999999C530.233 500.3919999999999 554.536 476.115 554.536 446.174V283.625H608.7529999999999C630.6759999999999 283.625 650.583 270.389 658.842 250.1620000000001C667.207 229.8300000000001 662.548 206.533 647.088 191.0730000000001L538.653 82.64C528.063 72.101 514.189 66.754 500.318 66.754S472.522 72.101 461.9850000000001 82.64L353.5490000000001 191.073C338.033 206.533 333.4280000000001 229.8830000000001 341.7930000000001 250.1620000000001C350.1070000000001 270.389 370.0150000000001 283.625 391.882 283.625z" />
    <glyph glyph-name="download"
      unicode="&#xEA26;"
      horiz-adv-x="1000.637" d=" M817.396 265.3640000000001C817.396 238.967 785.6519999999999 235.1960000000001 785.6519999999999 235.1960000000001H219.6519999999999C189.4839999999999 235.1960000000001 189.4839999999999 265.3640000000001 189.4839999999999 265.3640000000001L188.7149999999999 362.5800000000001H62.877V144.6900000000001C62.877 111.37 89.893 85.2950000000001 123.214 85.2950000000001H877.423C910.743 85.2950000000001 937.76 111.3680000000001 937.76 144.6900000000001V362.5800000000001H817.396V265.3640000000001z M736.072 540.861H569.62V859.876H569.587C569.411 888.744 545.962 912.094 517.054 912.094C488.1439999999999 912.094 464.695 888.744 464.519 859.876H464.462V540.861H302.529L519.006 319.7630000000001L736.072 540.861z" />
    <glyph glyph-name="drag-sort"
      unicode="&#xEA27;"
      horiz-adv-x="1000.637" d=" M425.697 923.046L287.284 714.351L189.37 566.719C189.731 566.357 190.232 566.133 190.784 566.133L318.284 590.929V79.632C318.284 78.5269999999999 319.18 77.632 320.284 77.632H424.284C425.388 77.632 426.284 78.5269999999999 426.284 79.632V628.133V921.631C426.284 922.184 426.061 922.684 425.697 923.046z M574.938 77.632L713.352 286.3269999999999L811.266 433.959C810.905 434.3209999999999 810.4029999999999 434.545 809.852 434.545L682.352 409.7489999999999V921.046C682.352 922.15 681.456 923.046 680.352 923.046H576.352C575.247 923.046 574.352 922.15 574.352 921.046V372.545V79.0459999999999C574.353 78.4930000000001 574.575 77.9930000000001 574.938 77.632z" />
    <glyph glyph-name="edit"
      unicode="&#xEA28;"
      horiz-adv-x="1000.637" d=" M768.428 901.857L655.505 788.935L788.293 656.081L901.281 769.003L768.428 901.857zM415.709 403.411L379.604 439.352L632.306 692.088L595.514 728.88L207.282 340.48L207.737 340.154L99.355 98.821L339.741 208.217L340.069 207.7580000000001L341.18 208.9350000000001L341.18 208.9350000000001L728.3029999999999 596.125L668.2809999999998 656.0820000000001L415.709 403.411zM326.901 269.906L222.112 222.199L269.425 327.476L322.163 380.278L329.807 329.8930000000001L379.736 322.7050000000001L326.901 269.906z" />
    <glyph glyph-name="email-box"
      unicode="&#xEA29;"
      horiz-adv-x="1000.637" d=" M890.969 801.719H109.668C78.819 801.719 53.862 776.7049999999999 53.862 745.912V254.766C53.862 223.9749999999999 78.819 198.958 109.668 198.958H890.969C921.8130000000002 198.958 946.774 223.975 946.774 254.766V745.912C946.774 776.7049999999999 921.813 801.719 890.969 801.719zM500.37 474.943L173.598 745.912H827.038L500.37 474.943zM364.723 500.449L109.668 288.938V711.904L364.723 500.449zM408.4340000000001 464.152L500.372 387.908L592.313 464.152L844.809 254.765H155.883L408.4340000000001 464.152zM636.02 500.449L890.969 711.904V288.938L636.02 500.449z" />
    <glyph glyph-name="enable"
      unicode="&#xEA2A;"
      horiz-adv-x="1000.637" d=" M749.337 898.728C251.589 898.728 251.589 898.728 251.589 898.728C168.991 898.728 102.025 831.7149999999999 102.025 749.358C102.025 251.322 102.025 251.322 102.025 251.322C102.025 168.728 168.992 101.951 251.589 101.951C749.337 101.951 749.337 101.951 749.337 101.951C831.694 101.951 898.612 168.7280000000001 898.612 251.322C898.612 749.358 898.612 749.358 898.612 749.358C898.613 831.715 831.695 898.728 749.337 898.728zM393.149 261.757L393.094 261.8119999999999L393.039 261.757L197.719 457.0769999999999L265.114 524.4719999999999L393.093 396.4919999999999L735.521 738.9219999999998L802.9169999999999 671.5259999999998L393.149 261.757z" />
    <glyph glyph-name="exception"
      unicode="&#xEA2B;"
      horiz-adv-x="1000.637" d=" M928.734 188.972C905.009 231.82 563.5360000000001 823.452 542.222 859.664C523.116 892.145 477.602 892.696 458.512 859.664C429.454 809.36 89.716 219.975 72.885 190.478C51.863 153.684 78.597 116.4459999999999 114.527 116.4459999999999C142.237 116.4459999999999 847.167 116.4459999999999 887.335 116.4459999999999C926.91 116.446 946.131 157.598 928.734 188.972zM500.176 210.283C474.164 210.283 453.03 231.4210000000001 453.03 257.4310000000001C453.03 283.4930000000001 474.165 304.5780000000001 500.176 304.5780000000001C526.237 304.5780000000001 547.325 283.4910000000001 547.325 257.4310000000001C547.325 231.4210000000001 526.237 210.283 500.176 210.283zM594.517 587.327C590.5160000000001 540.134 547.326 398.785 547.326 398.785C538.6940000000001 371.608 526.238 351.683 500.177 351.683C474.165 351.683 460.81 372.8780000000001 453.031 398.785C453.031 398.785 405.8810000000001 535.278 405.8810000000001 587.327C405.8810000000001 639.379 448.0830000000001 681.577 500.175 681.577C552.295 681.576 598.51 634.4639999999999 594.517 587.327z" />
    <glyph glyph-name="exchange"
      unicode="&#xEA2C;"
      horiz-adv-x="1000.637" d=" M191.153 576.579C206.655 561.13 229.933 556.475 250.198 564.833C270.3560000000001 573.192 283.5820000000001 592.874 283.5820000000001 614.779V668.742H337.7590000000001V776.835H283.5820000000001V830.9590000000001C283.5820000000001 852.809 270.3550000000001 872.544 250.1440000000001 880.904C229.933 889.263 206.655 884.608 191.1530000000001 869.158L82.798 761.069C72.242 750.539 66.873 736.677 66.873 722.922C66.873 709.061 72.191 695.251 82.745 684.616L191.153 576.579zM809.538 436.7970000000001C794.035 452.246 770.7570000000001 456.797 750.493 448.5410000000001C730.2810000000001 440.1840000000001 717.0550000000001 420.3950000000001 717.0550000000001 398.5980000000001V344.528H662.878V236.3830000000001H717.0550000000001V182.418C717.0550000000001 160.5120000000001 730.282 140.832 750.493 132.473C770.7570000000001 124.1139999999999 794.0350000000001 128.6619999999999 809.538 144.2189999999999L917.892 252.256C928.421 262.836 933.764 276.699 933.764 290.453C933.764 304.3160000000001 928.421 318.178 917.892 328.654L809.538 436.7970000000001zM446.1670000000001 236.3830000000001H500.344V344.5270000000001H446.167V236.3830000000001zM446.1670000000001 776.835H391.9890000000001V668.742H446.1670000000001V776.835zM337.812 452.563H121.103C91.21 452.563 66.925 428.333 66.925 398.493V182.3109999999999C66.925 152.4709999999999 91.21 128.3459999999999 121.103 128.3459999999999H337.8120000000001C367.7310000000001 128.3459999999999 391.9890000000001 152.4709999999999 391.9890000000001 182.3109999999999V398.4920000000001C391.9890000000001 428.332 367.7320000000001 452.563 337.812 452.563zM283.5820000000001 236.3830000000001H175.228V344.5270000000001H283.5820000000001V236.3830000000001zM554.5219999999999 776.835H500.344V668.742H554.5219999999999V776.835zM879.534 884.925H662.877C632.933 884.925 608.6469999999999 860.8 608.6469999999999 830.906V614.78C608.6469999999999 584.885 632.9329999999999 560.707 662.877 560.707H879.533C909.584 560.707 933.762 584.885 933.762 614.78V830.906C933.763 860.8 909.584 884.925 879.534 884.925zM825.356 668.743H717.054V776.835H825.356V668.743zM554.5219999999999 236.3830000000001H608.6469999999999V344.5270000000001H554.5219999999999V236.3830000000001z" />
    <glyph glyph-name="export"
      unicode="&#xEA2D;"
      horiz-adv-x="1000.637" d=" M76.529 791.1179999999999V242.2220000000001C76.529 151.2570000000001 150.234 77.5540000000001 241.198 77.5540000000001H789.774C880.794 77.5540000000001 954.442 151.2580000000001 954.442 242.2220000000001V791.1179999999999C954.442 882.084 880.794 955.788 789.774 955.788H693.287L741.5300000000001 907.545C759.2180000000001 889.963 771.6550000000001 868.844 779.801 846.006H789.774C820.111 846.006 844.665 821.457 844.665 791.1179999999999V242.222C844.665 211.828 820.111 187.331 789.774 187.331L241.198 187.3300000000001C210.858 187.3300000000001 186.309 211.8280000000001 186.309 242.2220000000001V791.1179999999999C186.309 821.457 210.858 846.006 241.198 846.006H251.169C259.21 868.844 271.753 889.906 289.335 907.545L337.577 955.789H241.2C150.288 955.789 76.529 882.0840000000001 76.529 791.1179999999999zM675.813 770.107C684.283 790.69 679.566 814.275 664.0219999999999 829.9259999999999L554.238 939.758C543.519 950.426 529.4730000000001 955.787 515.431 955.787C501.3870000000001 955.787 487.342 950.426 476.621 939.758L366.951 829.927C351.192 814.276 346.582 790.691 355.0510000000001 770.108C363.468 749.63 383.5680000000001 736.229 405.7600000000001 736.229H460.6490000000001V471.5600000000001C460.6490000000001 441.1660000000001 485.1440000000001 416.6690000000001 515.538 416.6690000000001C545.88 416.6690000000001 570.321 441.1660000000001 570.321 471.5600000000001V736.229H625.21C647.402 736.2280000000001 667.451 749.63 675.813 770.107z" />
    <glyph glyph-name="fail"
      unicode="&#xEA2E;"
      horiz-adv-x="1000.637" d=" M810.022 810.043C638.99 981.074 361.649 981.074 190.615 810.042C19.582 639.009 19.584 361.668 190.615 190.6370000000001C361.648 19.604 638.989 19.6030000000001 810.021 190.6370000000001C981.053 361.669 981.055 639.009 810.022 810.043zM597.897 305.1860000000001L500.3190000000001 402.7630000000001L402.834 305.278C375.867 278.312 332.131 278.216 305.1620000000001 305.1850000000001C278.146 332.201 278.2910000000001 375.8930000000001 305.2550000000001 402.8570000000001L402.7400000000001 500.3420000000001L305.1630000000001 597.9190000000001C278.2430000000001 624.8380000000001 278.2920000000001 668.624 305.1630000000001 695.4950000000001C332.0320000000001 722.3640000000001 375.8200000000001 722.4170000000001 402.7400000000001 695.4960000000001L500.3180000000001 597.9190000000001L597.8960000000001 695.4960000000001C624.8610000000001 722.461 668.46 722.5110000000001 695.474 695.4960000000001C722.441 668.528 722.49 624.9330000000001 695.475 597.9170000000001L597.898 500.3400000000001L695.4730000000001 402.7650000000001C722.392 375.8450000000002 722.4390000000001 332.1520000000002 695.4730000000001 305.1860000000002C668.604 278.315 624.818 278.265 597.897 305.1860000000001z" />
    <glyph glyph-name="fav-box"
      unicode="&#xEA2F;"
      horiz-adv-x="1000.637" d=" M883.732 644.518V664.489H116.742V644.518C101.613 641.55 90.267 628.153 90.267 612.319L110.29 191.228C110.29 173.237 114.04 158.5 132.154 158.5H318.8930000000001H868.5C886.6 158.5 890.346 173.236 890.346 191.228L910.369 612.319C910.369 628.329 898.918 641.55 883.732 644.518zM773.1 343.752L797.721 200.314L668.8969999999999 268.04L540.055 200.314L564.6389999999999 343.752L460.438 445.374L604.477 466.3000000000001L668.8969999999999 596.801L733.2839999999999 466.3000000000001L877.3369999999999 445.374L773.1 343.752z M883.732 744.125C883.732 761.093 870.0369999999999 774.914 852.9119999999999 774.914H463.176C450.964 775.303 441.581 797.288 441.581 805.771V809.412C441.581 827.509 426.894 842.178 408.831 842.178H201.29C183.178 842.178 168.492 827.509 168.492 809.412L168.544 805.771C168.544 797.252 159 774.914 146.752 774.914H146.945C130.228 774.559 116.742 760.88 116.742 744.125V703.4069999999999H883.732V744.125z" />
    <glyph glyph-name="fav"
      unicode="&#xEA30;"
      horiz-adv-x="1000.637" d=" M787.842 103.846L517.117 246.0850000000001L246.398 103.852L298.144 405.108L79.108 618.547L381.725 662.596L517.13 936.582L652.461 662.544L955.111 618.4929999999999L736.064 405.105L787.842 103.846z" />
    <glyph glyph-name="feedback"
      unicode="&#xEA31;"
      horiz-adv-x="1000.637" d=" M753.644 905.484H246.995C163.03 905.484 94.998 837.427 94.998 753.5419999999999V399.034C94.998 315.175 163.03 247.14 246.995 247.14L348.325 95.1950000000001L449.656 247.139H753.644C837.556 247.139 905.639 315.173 905.639 399.0320000000001V753.54C905.639 837.477 837.557 905.484 753.644 905.484zM500.319 392.336H205.844V465.888H500.32V392.336zM794.794 539.505H205.8439999999999V613.124H794.794V539.505zM794.794 686.6659999999999H205.8439999999999V760.285H794.794V686.6659999999999z" />
    <glyph glyph-name="file"
      unicode="&#xEA32;"
      horiz-adv-x="1000.637" d=" M773.7479999999999 227.578H226.889C136.263 227.578 62.832 300.849 62.832 391.2100000000001V554.892L281.5220000000001 773.1H719.062L937.805 554.892V391.2100000000001C937.804 300.85 864.374 227.578 773.7479999999999 227.578zM673.774 663.995H326.8610000000001L172.203 500.3099999999999H336.2600000000001V445.736C336.2600000000001 415.615 360.6920000000001 391.211 390.9470000000001 391.211H609.691C639.863 391.211 664.3760000000001 415.615 664.3760000000001 445.736V500.3099999999999H828.3810000000001L673.774 663.995z" />
    <glyph glyph-name="filter"
      unicode="&#xEA33;"
      horiz-adv-x="1000.636" d=" M562.294 31.9970000000001C537.607 31.9960000000001 514.4499999999999 42.4160000000001 498.377 60.749L344.3450000000001 224.615C327.8300000000001 241.997 318.9170000000001 264.5850000000001 319.209 288.3V458.8499999999999L78.308 810.803C65.86 823.064 57.192 838.741 53.595 855.739C49.561 874.8 52.04 894.766 60.562 912.315C75.274 947.386 110.491 969.772 149.416 968.632H820.77C859.568 969.882 894.752 947.692 909.602 912.813C918.213 895.248 920.752 875.236 916.736 856.119C913.161 839.1 904.503 823.402 892.048 811.12L651.2869999999999 458.8670000000001V124.6850000000001C653.0809999999999 88.6500000000001 632.045 54.6510000000001 598.3589999999999 39.5580000000001L597.593 39.2220000000001C586.737 34.5740000000001 575.231 32.1460000000001 563.396 32.0040000000001C563.029 31.999 562.66 31.9970000000001 562.294 31.9970000000001zM419.209 290.977L551.286 150.468V489.777L810.2299999999999 868.6320000000001H159.907L419.209 489.795V290.977z" />
    <glyph glyph-name="fold"
      unicode="&#xEA34;"
      horiz-adv-x="1000.637" d=" M165.182 407.7290000000001L500.318 742.866L835.457 407.7290000000001L947.865 407.7290000000001L500.318 855.275L52.771 407.7290000000001z M165.182 145.404L500.318 480.54L835.457 145.404L947.865 145.404L500.318 592.9490000000001L52.771 145.404z" />
    <glyph glyph-name="folder"
      unicode="&#xEA35;"
      horiz-adv-x="1000.637" d=" M909.976 657.393V678.759H90.4460000000001V657.393C74.3230000000001 654.219 62.1960000000001 639.916 62.1960000000001 623.009L83.5970000000001 173.081C83.5970000000001 153.8540000000001 87.5920000000001 138.0890000000001 106.9250000000001 138.0890000000001H893.711C913.043 138.0890000000001 917.038 153.855 917.038 173.081L938.439 623.009C938.44 640.093 926.241 654.219 909.976 657.393zM909.976 763.829C909.976 781.95 895.352 796.716 877.089 796.716H460.6180000000001C447.5630000000001 797.145 437.5760000000001 820.65 437.5760000000001 829.71V833.599C437.5760000000001 852.931 421.8820000000001 868.589 402.5500000000001 868.589H180.832C161.428 868.589 145.734 852.9300000000001 145.734 833.599L145.805 829.71C145.805 820.614 135.603 796.716 122.548 796.716H122.762C104.856 796.36 90.446 781.736 90.446 763.829V720.314H909.976V763.829z" />
    <glyph glyph-name="forwarding"
      unicode="&#xEA36;"
      horiz-adv-x="1000.637" d=" M773.6659999999999 65.1710000000001H226.97C136.369 65.1710000000001 62.961 138.5250000000001 62.961 229.124V775.553C62.961 866.073 136.369 939.508 226.97 939.508H475.117C456.298 906.915 445.647 869.569 445.647 830.223H226.97C196.805 830.223 172.3 805.717 172.3 775.553V229.124C172.3 198.908 196.805 174.4540000000001 226.97 174.4540000000001H773.666C803.88 174.4540000000001 828.336 198.908 828.336 229.124V352.078L937.674 434.028V229.124C937.674 138.524 864.266 65.1710000000001 773.6659999999999 65.1710000000001zM697.106 458.6410000000001C687.495 451.378 675.913 447.6960000000001 664.325 447.6960000000001C655.9970000000001 447.6960000000001 647.562 449.621 639.8760000000001 453.4110000000001C621.3510000000001 462.7 609.6550000000001 481.5980000000001 609.6550000000001 502.313V554.633V556.9830000000001C436.3600000000002 556.9830000000001 290.1000000000002 441.7720000000001 242.9870000000001 283.7430000000001C232.7100000000001 318.4460000000001 226.9700000000001 355.0680000000001 226.9700000000001 393.0820000000001C226.9700000000001 604.2840000000001 398.2920000000002 775.5540000000001 609.6550000000001 775.5540000000001V830.224C609.6550000000001 850.9380000000001 621.3500000000001 869.865 639.8760000000001 879.1000000000001C647.5630000000001 882.9170000000001 655.9970000000001 884.839 664.325 884.839C675.913 884.839 687.495 881.128 697.106 873.8940000000001L915.783 709.939C929.56 699.663 937.675 683.432 937.675 666.268C937.675 649.05 929.561 632.874 915.783 622.596L697.106 458.6410000000001z" />
    <glyph glyph-name="full"
      unicode="&#xEA37;"
      horiz-adv-x="1000.637" d=" M409.459 942.618H68.179L68.329 602.4939999999999L181.868 716.077L333.295 564.6469999999999L450.131 681.485L298.724 832.91L409.459 942.618zM333.295 445.5420000000001L181.868 294.1180000000001L68.329 407.699L68.179 66.2049999999999H409.459L298.724 177.281L450.131 328.7109999999999L333.295 445.5420000000001zM677.122 564.648L828.528 716.078L942.066 602.495L942.238 942.619H600.9580000000001L711.6930000000001 832.9110000000001L560.286 681.486L677.122 564.648zM828.529 294.1180000000001L677.122 445.5420000000001L560.286 328.7100000000001L711.693 177.2800000000001L600.958 66.204H942.238L942.066 407.698L828.529 294.1180000000001z" />
    <glyph glyph-name="get-mail"
      unicode="&#xEA38;"
      horiz-adv-x="1000.637" d=" M461.598 516.358C472.348 505.689 486.358 500.312 500.318 500.312C514.2769999999999 500.312 528.288 505.689 539.038 516.358L648.57 625.836C664.19 641.452 668.894 665.038 660.4440000000001 685.468C651.993 705.899 631.9920000000001 719.269 609.849 719.269H555.191V883.514C555.191 913.732 530.587 938.28 500.424 938.28C470.206 938.28 445.658 913.786 445.658 883.514V719.269H390.786C368.669 719.269 348.617 705.899 340.192 685.468C331.741 665.037 336.395 641.451 352.0660000000001 625.836L461.598 516.358zM774.148 719.27H764.304C777.144 683.117 777.144 644.609 764.841 609.791H774.148C787.519 609.791 799.393 604.416 808.912 596.474L500.318 390.836L191.779 596.474C201.299 604.416 213.116 609.791 226.489 609.791H235.795C223.466 644.609 223.466 683.1170000000001 236.3570000000001 719.27H226.4890000000001C135.7820000000001 719.27 62.191 645.785 62.191 555.0790000000001V226.5910000000001C62.191 135.8850000000001 135.728 62.4000000000001 226.4890000000001 62.4000000000001H774.148C864.96 62.4000000000001 938.445 135.8850000000001 938.445 226.5910000000001V555.078C938.445 645.784 864.959 719.27 774.148 719.27zM828.914 281.355L664.616 336.121L812.867 187.9250000000001C803.029 178.0300000000001 789.338 171.8800000000001 774.1479999999999 171.8800000000001H226.489C211.38 171.8800000000001 197.688 178.0300000000001 187.769 187.9250000000001L336.0200000000001 336.1210000000001L171.723 281.355V500.313L500.318 281.355L828.914 500.312V281.355z" />
    <glyph glyph-name="group"
      unicode="&#xEA39;"
      horiz-adv-x="1000.637" d=" M530.852 331.0130000000001C439.996 344.557 446.666 392.5700000000001 445.93 395.884C446.1209999999999 404.259 446.353 442.833 446.353 442.833S498.581 477.083 514.9219999999999 523.643C540.6329999999999 539.881 552.1719999999999 542.1389999999999 556.4279999999999 560.846C556.4279999999999 560.846 565.1039999999999 631.576 537.4829999999998 631.576C537.4829999999998 631.576 525.9699999999998 629.7280000000001 529.6529999999998 646.3C533.3369999999998 662.873 529.9259999999998 712.8910000000001 528.0849999999998 731.3040000000001C526.2429999999998 749.7180000000001 531.6179999999998 802.3420000000001 492.9479999999998 809.7070000000001C466.5539999999998 814.618 463.4859999999998 807.164 450.5949999999998 809.0050000000001C437.7049999999998 810.839 422.3609999999998 849.9180000000001 398.4219999999998 849.9180000000001L348.7039999999998 839.75C324.7659999999998 839.75 328.4489999999998 832.3910000000001 315.5579999999998 830.5430000000001C302.6679999999998 828.7080000000001 318.1769999999998 832.3910000000001 279.4939999999998 825.0250000000001C240.8249999999998 817.652 227.1709999999998 767.942 225.3289999999998 749.5210000000001C223.4879999999998 731.114 223.4609999999998 677.5900000000001 224.7019999999998 649.9830000000001C228.3709999999998 633.403 213.3119999999997 633.403 213.3119999999997 633.403C190.1369999999997 634.8970000000002 200.5449999999997 562.6930000000001 200.5449999999997 562.6930000000001C203.8869999999998 544.9000000000001 199.3579999999997 536.0340000000001 233.6629999999998 522.2570000000001C250.0039999999998 475.7030000000001 305.5589999999998 452.1890000000001 305.5589999999998 452.1890000000001S307.6189999999998 422.3580000000001 308.2739999999997 401.0930000000001C304.7819999999997 402.8390000000001 315.9529999999997 346.7510000000001 209.3829999999997 331.0110000000001C102.801 315.299 94.617 280.7770000000001 74.526 261.558C54.434 242.3250000000001 55.961 151.8780000000001 55.961 151.8780000000001H698.201C698.201 151.8780000000001 696.018 242.3250000000001 675.927 261.5580000000001C655.835 280.7770000000001 637.435 315.299 530.852 331.0130000000001zM944.703 152.615C944.703 152.615 941.348 216.71 925.962 231.4410000000001C910.563 246.158 896.458 272.62 814.7819999999999 284.664C748.819 294.103 740.0479999999999 338.529 739.4889999999999 341.0660000000001C739.6389999999999 347.49 740.7439999999999 374.7150000000001 740.7439999999999 374.7150000000001S785.06 396.6070000000001 797.5819999999999 432.2760000000001C817.2919999999999 444.7160000000001 818.2469999999998 446.4620000000001 821.5069999999998 460.811C821.5069999999998 460.811 822.9249999999998 514.989 801.7559999999999 514.989C801.7559999999999 514.989 792.9309999999998 513.5840000000001 795.7549999999999 526.282C797.7049999999999 545.0920000000001 796.3269999999999 579.9960000000001 794.9229999999999 594.094C793.5039999999999 608.2040000000001 798.9329999999999 648.552 769.2929999999999 654.1850000000001C749.0639999999999 657.9630000000001 758.5029999999999 652.2350000000001 748.6279999999999 653.6460000000001C738.7529999999999 655.0640000000001 726.982 682.835 708.6489999999999 682.835L670.5389999999999 674.5350000000001C652.1929999999999 674.5350000000001 655.0169999999998 668.8880000000001 645.1419999999998 667.4760000000001S652.3839999999998 668.888 622.7459999999999 663.241C593.1049999999999 657.594 589.1909999999999 619.4970000000001 587.7859999999998 605.3800000000001C586.3669999999998 591.2830000000001 585.9859999999999 550.268 586.9269999999998 529.105C589.7499999999998 516.399 573.3279999999997 516.399 573.3279999999997 516.399C555.5679999999998 517.538 560.0569999999998 462.2140000000001 560.0569999999998 462.2140000000001C562.6199999999998 448.5730000000001 559.1429999999998 441.7800000000001 585.4399999999998 431.2240000000001C597.9609999999998 395.5410000000001 633.4669999999999 377.523 633.4669999999999 377.523S629.8109999999999 352.9170000000001 630.3029999999999 336.6170000000001C662.0159999999998 317.9980000000001 685.8579999999998 309.5140000000001 705.7849999999999 272.6590000000001C727.8689999999998 210.4880000000001 727.2149999999998 152.6130000000001 727.2149999999998 152.6130000000001C833.687 152.615 944.703 152.615 944.703 152.615z" />
    <glyph glyph-name="groupchat"
      unicode="&#xEA3A;"
      horiz-adv-x="1000.637" d=" M373.521 337.593C340.5370000000001 381.1049999999999 323.8330000000001 430.665 324.831 481.415C327.6620000000001 622.7289999999999 471.068 737.653 644.53 737.653L652.06 737.588C694.2189999999999 736.7529999999999 734.222 729.1899999999999 770.911 716.509C708.8939999999999 806.073 590.1419999999999 868.635 451.889 871.3689999999999L442.746 871.435H442.557H442.365C243.025 871.435 78.316 744.185 75.1639999999999 587.81C74.1309999999999 533.5819999999999 92.2819999999999 480.256 127.6199999999999 433.6249999999999C149.5689999999999 405.498 155.4239999999999 365.4959999999999 145.4499999999999 314.4529999999999L128.971 230.5859999999999L207.466 264.3769999999999L312.991 309.8519999999999C334.746 303.1599999999999 357.209 298.5239999999999 379.93 295.1759999999998C381.858 310.4 381.57 327.2960000000001 373.521 337.593z M403.387 209.603L546.097 271.126C576.7139999999999 261.337 610.079 255.735 645.129 255.132C800.7330000000001 251.947 928.535 347.7209999999999 931.036 469.0369999999999C933.489 590.3459999999999 809.192 691.0339999999999 653.83 693.934C498.275 697.1589999999999 370.4260000000001 601.3449999999999 367.9340000000001 480.2769999999999C367.209 438.051 381.5130000000001 398.405 407.3370000000001 364.361C451.656 307.512 403.387 209.603 403.387 209.603z" />
    <glyph glyph-name="help"
      unicode="&#xEA3B;"
      horiz-adv-x="1000.637" d=" M500.318 921.618C267.651 921.618 79.037 733.005 79.037 500.337C79.037 267.673 267.652 79.0600000000001 500.318 79.0600000000001C732.983 79.0600000000001 921.599 267.6730000000001 921.599 500.337C921.6 733.005 732.983 921.618 500.318 921.618zM552.325 203.355H438.447V314.525H552.324L552.325 203.355L552.325 203.355zM591.695 462.009C560.0060000000001 440.8820000000001 545.433 416.0850000000001 546.902 386.0320000000001V338.927H446.58V387.732C444.49 445.121 471.322 494.2089999999999 526.284 532.904C575.768 566.4 597.513 599.558 593.163 634.468C587.349 676.8309999999999 563.231 697.843 515.044 702.3629999999999L507.361 702.48C449.801 702.48 417.434 672.7069999999999 405.573 608.8219999999999L400.993 584.3059999999999L301.635 617.4659999999999L306.154 636.7279999999998C331.008 741.7939999999999 401.957 797.3219999999999 511.427 797.3219999999999L523.234 797.1519999999999C630.053 791.1049999999999 690.551 735.4679999999998 698.6880000000001 636.2179999999998C702.807 571.937 666.822 513.413 591.695 462.009z" />
    <glyph glyph-name="history-record"
      unicode="&#xEA3C;"
      horiz-adv-x="1000.637" d=" M291.714 646.86H505.564C518.111 646.86 528.15 651.716 528.15 657.605V709.5409999999999C528.15 715.428 518.111 720.1890000000001 505.564 720.1890000000001H291.714C279.422 720.1890000000001 269.319 715.426 269.319 709.5409999999999V657.605C269.319 651.716 279.4220000000001 646.86 291.714 646.86z M745.73 270.16H618.566C608.08 270.16 599.586 278.718 599.586 289.209V409.165C599.586 419.7199999999999 608.08 428.214 618.566 428.214C629.125 428.214 637.6170000000001 419.7199999999999 637.6170000000001 409.165V304.2680000000001H745.73C756.22 304.2680000000001 764.716 297.8960000000001 764.716 287.409C764.717 276.9160000000001 756.223 270.16 745.73 270.16L745.73 270.16z M634.979 522.106C518.5 522.106 424.0270000000001 426.927 424.0270000000001 309.545C424.0270000000001 192.1619999999999 518.498 97.015 634.979 97.015C751.461 97.015 845.9340000000001 192.162 845.9340000000001 309.545C845.934 426.927 751.461 522.106 634.979 522.106zM634.979 146.4070000000001C545.59 146.4070000000001 473.062 219.4500000000001 473.062 309.5470000000001C473.062 399.6430000000001 545.59 472.718 634.979 472.718C724.432 472.718 796.893 399.6429999999999 796.893 309.5469999999999S724.434 146.4070000000001 634.979 146.4070000000001z M845.934 186.886C824.631 149.881 794.0649999999999 119.057 757.3829999999999 97.53H845.934V186.886z M450.605 149.303H203.357V855.977L542.632 855.946C635.0419999999999 855.977 590.5129999999999 651.973 590.5129999999999 651.973S795.9309999999999 703.971 798.632 606.058V491.0559999999999C817.2299999999999 474.035 833.2529999999999 454.2769999999999 845.935 432.2359999999999V668.5129999999999L610.975 903.663H154.833L154.702 97.559H512.578C489.217 111.303 468.236 128.773 450.605 149.303z M742.836 529.4100000000001V552.03C742.836 557.952 736.018 562.715 727.713 562.715H717.4839999999999H454.146H284.439C276.1380000000001 562.715 269.319 558.0160000000001 269.319 552.095V500.131C269.319 494.24 276.1380000000001 489.446 284.439 489.446H294.7360000000001H469.59C513.093 530.021 571.1379999999999 555.0540000000001 634.98 555.0540000000001C673.723 555.056 710.275 545.659 742.836 529.4100000000001z M317.389 408.843C276.139 408.843 269.32 404.049 269.32 398.194V346.1959999999999C269.32 340.3399999999999 276.139 335.546 284.44 335.546H392.492C395.197 361.416 402.0150000000001 385.9999999999999 412.1190000000001 408.8449999999999L317.389 408.843L317.389 408.843z" />
    <glyph glyph-name="history"
      unicode="&#xEA3D;"
      horiz-adv-x="1000.637" d=" M500.371 935.278C260.136 935.278 65.406 740.549 65.406 500.338S260.135 65.4 500.371 65.4C740.557 65.4 935.23 260.126 935.23 500.338S740.557 935.278 500.371 935.278zM753.522 454.111H505.531C476.233 454.111 454.968 475.379 454.968 504.709V769.415C454.968 798.744 476.233 822.553 505.531 822.553C534.891 822.553 558.729 798.744 558.729 769.415V558.939L753.522 557.8409999999999C782.8810000000001 557.8409999999999 806.6590000000001 534.064 806.6590000000001 504.708C806.658 475.378 782.881 454.111 753.522 454.111z" />
    <glyph glyph-name="home"
      unicode="&#xEA3E;"
      horiz-adv-x="1000.637" d=" M775.694 883.705H885.444V645.642L775.694 771.096V883.705zM830.57 499.578L501.319 875.853L172.068 499.578H62.319L446.444 938.604H556.194L940.319 499.578H830.57zM830.57 428.7000000000001V60.6030000000001H611.07V334.99C611.07 365.2770000000001 586.499 389.836 556.1940000000001 389.836H446.4440000000001C416.1390000000001 389.836 391.5690000000001 365.2770000000001 391.5690000000001 334.99V60.6039999999999H172.068V428.7539999999999L501.318 792.5139999999999L830.57 428.7000000000001z" />
    <glyph glyph-name="house"
      unicode="&#xEA3F;"
      horiz-adv-x="1000.637" d=" M787.842 103.846L517.117 246.0850000000001L246.398 103.852L298.144 405.108L79.108 618.547L381.725 662.596L517.13 936.582L652.461 662.544L955.111 618.4929999999999L736.064 405.105L787.842 103.846z" />
    <glyph glyph-name="human-relations"
      unicode="&#xEA40;"
      horiz-adv-x="1000.637" d=" M706.301 286.793C654.764 286.793 609.567 259.602 584.3480000000001 218.7670000000001L354.474 351.52V496.232L482.571 624.328C521.948 586.112 575.684 562.577 634.915 562.577C755.833 562.577 853.794 660.572 853.794 781.457C853.794 902.376 755.833 1000.339 634.915 1000.339C514.0609999999999 1000.339 416.033 902.376 416.033 781.457C416.033 733.737 431.294 689.572 457.2239999999999 653.621L325.699 522.065H146.844V312.14H345.291L568.5699999999999 183.2679999999999C564.949 170.6579999999999 563.0089999999999 157.338 563.0089999999999 143.5659999999999C563.0089999999999 64.4509999999999 627.1539999999999 0.3379999999999 706.3 0.3379999999999C785.382 0.3379999999999 849.5269999999999 64.4499999999998 849.5269999999999 143.5659999999999C849.528 222.679 785.383 286.793 706.301 286.793zM634.914 923.746C713.478 923.746 777.17 860.0219999999999 777.17 781.457C777.17 702.893 713.4789999999999 639.2 634.914 639.2C556.348 639.2 492.657 702.892 492.657 781.457C492.657 860.0219999999999 556.348 923.746 634.914 923.746zM287.1600000000001 381.749H214.156V454.784H287.1600000000001V381.749zM706.301 69.0750000000001C665.1120000000001 69.0750000000001 631.811 102.4400000000001 631.811 143.566C631.811 184.6900000000001 665.1120000000001 218.0560000000001 706.301 218.0560000000001C747.426 218.0560000000001 780.7270000000001 184.6900000000001 780.7270000000001 143.566C780.727 102.4399999999999 747.426 69.0750000000001 706.301 69.0750000000001z" />
    <glyph glyph-name="icon"
      unicode="&#xEA41;"
      horiz-adv-x="1000.637" d=" M65.649 796.734V792.2760000000001H127.473C147.111 836.794 182.829 872.513 227.405 892.208V953.973H223.006C146.322 933.638 86.042 873.417 65.649 796.734z M127.415 243.115H65.649V238.747C86.043 162.0609999999999 146.322 101.755 223.005 81.358H227.346V143.125C182.829 162.936 147.022 198.598 127.415 243.115z M299.719 908.611C301.932 908.698 304.088 908.931 306.301 908.931H465.728V953.973H299.719V908.611z M299.719 126.867V81.356H465.728V126.46H306.301C304.087 126.461 301.932 126.752 299.719 126.867z M538.067 908.931H697.494C699.707 908.931 701.8050000000001 908.698 704.019 908.611V953.973H538.067V908.931z M780.761 953.973H776.506V892.208C821.025 872.513 856.803 836.794 876.381 792.2760000000001H938.264V796.558C917.867 873.359 857.56 933.638 780.761 953.973z M893.163 713.2629999999999V553.838H938.264V719.906H892.755C892.871 717.75 893.163 715.595 893.163 713.2629999999999z M110.633 713.2629999999999C110.633 715.594 110.925 717.691 111.012 719.906H65.649V553.838H110.632L110.633 713.2629999999999L110.633 713.2629999999999z M893.163 322.129C893.163 319.9160000000001 892.871 317.818 892.755 315.602H938.264V481.6719999999999H893.163V322.129L893.163 322.129z M110.633 322.129V481.672H65.649V315.602H111.011C110.925 317.7000000000001 110.633 319.9160000000001 110.633 322.129z M776.506 143.242V81.4749999999999H780.761C857.5609999999999 101.8689999999999 917.867 162.1209999999999 938.2639999999998 238.916V243.229H876.4979999999999C856.684 198.598 821.023 162.936 776.506 143.242z M538.067 126.461V81.357H704.02V126.868C701.804 126.7529999999999 699.707 126.462 697.495 126.462H538.067z M240.401 688.832H305.2800000000001V636.126H240.401V688.832z M240.401 571.448H305.2800000000001V346.498H240.401V571.4479999999999z M372.989 688.832L362.7320000000001 688.832L362.7320000000001 401.74L362.7320000000001 346.5560000000001L420.129 346.5560000000001L532.706 346.5560000000001L532.706 401.74L420.129 401.74L420.129 636.126L542.202 636.126L542.202 688.832L420.129 688.832z M592.49 688.832V646.9939999999999V636.127V405.294V367.01V346.499H708.503H755.12H763.511V636.126V641.0219999999999V688.832H592.49L592.49 688.832zM708.503 405.293H648.66V636.126H708.5029999999999V405.293z" />
    <glyph glyph-name="id-card"
      unicode="&#xEA42;"
      horiz-adv-x="1000.637" d=" M773.751 281.699H828.438V336.334H773.751V281.699zM664.378 281.699H719.066V336.334H664.378V281.699zM883.125 828.299H117.513C87.232 828.299 62.826 803.865 62.826 773.6659999999999V227.0659999999999C62.826 196.838 87.232 172.3789999999999 117.513 172.3789999999999H883.124C913.352 172.3789999999999 937.811 196.8379999999999 937.811 227.0659999999999V773.6659999999999C937.811 803.866 913.352 828.299 883.125 828.299zM883.125 227.0660000000001H117.513V773.719H883.124L883.125 227.0660000000001L883.125 227.0660000000001zM500.266 281.699H609.693V336.334H500.266V281.699zM390.9460000000001 719.0319999999999H172.2V445.6529999999999H390.9460000000001V719.0319999999999zM281.573 336.334H172.2V281.699H281.573V336.334zM336.259 281.699H445.632V336.334H336.259V281.699zM828.438 719.14H445.632V664.453H828.438V719.14zM828.438 609.767H445.632V555.079H828.438V609.767zM500.266 391.073H609.693V445.708H500.266V391.073zM773.751 391.073H828.438V445.708H773.751V391.073zM664.378 391.073H719.066V445.708H664.378V391.073z" />
    <glyph glyph-name="idcard"
      unicode="&#xEA43;"
      horiz-adv-x="1000.637" d=" M860.107 784.8820000000001H140.4069999999999C96.5009999999999 784.8820000000001 60.7029999999999 751.456 60.7029999999999 710.482V290.198C60.7029999999999 249.223 96.5009999999999 215.7959999999999 140.4069999999999 215.7959999999999H860.107C904.075 215.7959999999999 939.935 249.224 939.935 290.198V710.482C939.935 751.456 904.074 784.8820000000001 860.107 784.8820000000001zM665.84 655.9110000000001C705.067 655.9110000000001 736.874 624.042 736.874 584.9390000000001C736.874 545.648 705.066 513.716 665.84 513.716C626.486 513.716 594.678 545.648 594.678 584.9390000000001C594.678 624.0419999999999 626.486 655.9110000000001 665.84 655.9110000000001zM402.406 362.105H135.231V400.337H402.407V362.105zM402.406 476.173H135.231V514.528H402.407V476.173zM402.406 590.489H135.231V628.658H402.407V590.489zM817.948 371.337C817.948 371.337 818.072 324.999 766.308 324.999H665.84H565.181C513.541 324.999 513.541 371.337 513.541 371.337V417.237C514.787 448.669 537.0550000000001 475.362 560.254 490.204C576.033 500.432 592.1850000000001 505.0479999999999 603.721 507.292L665.84 437.319L727.645 507.292C739.18 505.172 755.395 500.432 771.361 490.204C794.502 475.362 816.703 448.669 817.949 417.237V371.337z" />
    <glyph glyph-name="image"
      unicode="&#xEA44;"
      horiz-adv-x="1000.637" d=" M416.4410000000001 334.3580000000001C375.7450000000001 334.3580000000001 312.031 495.231 281.19 430.2200000000001C268.431 403.169 246.997 345.476 226.414 299.3730000000001V281.2900000000001C226.414 251.1220000000001 250.964 226.5010000000001 281.19 226.5010000000001H719.456C749.6850000000001 226.5010000000001 774.246 251.1220000000001 774.246 281.2900000000001V306.8550000000002C743.322 376.5150000000001 703.192 491.9490000000001 664.679 536.2560000000001C585.9169999999999 626.976 491.766 334.3580000000001 416.4410000000001 334.3580000000001zM774.246 938.424H226.414C135.613 938.424 62.046 864.833 62.046 774.128V226.5020000000001C62.046 135.879 135.613 62.253 226.414 62.253H774.246C865.034 62.253 938.591 135.879 938.591 226.5020000000001V774.1279999999999C938.59 864.8340000000001 865.034 938.424 774.246 938.424zM829.023 226.5020000000001C829.023 196.3340000000001 804.472 171.831 774.246 171.831H226.414C196.174 171.831 171.623 196.3340000000001 171.623 226.5020000000001V774.1279999999999C171.623 804.356 196.102 828.912 226.414 828.912H774.246C804.473 828.912 829.023 804.409 829.023 774.1279999999999V226.5020000000001zM308.5850000000001 609.885C353.9550000000001 609.885 390.757 646.592 390.757 692.01C390.757 737.427 353.955 774.181 308.585 774.181C263.167 774.181 226.414 737.427 226.414 692.01C226.414 646.592 263.214 609.885 308.5850000000001 609.885z" />
    <glyph glyph-name="import"
      unicode="&#xEA45;"
      horiz-adv-x="1000.637" d=" M78.119 243.2000000000001V790.144C78.119 880.785 151.508 954.226 242.149 954.226H351.486V844.838H242.149C211.917 844.838 187.456 820.324 187.456 790.145V243.203C187.456 212.973 211.917 188.51 242.149 188.51H788.823C819 188.51 843.515 212.973 843.515 243.203V790.144C843.515 820.3240000000001 818.9979999999999 844.837 788.823 844.837H679.488V954.226H788.8230000000001C879.383 954.226 952.8510000000002 880.785 952.8510000000002 790.144V243.201C952.8510000000002 152.616 879.4350000000002 79.119 788.8230000000001 79.119H242.149C151.507 79.1180000000001 78.119 152.616 78.119 243.2000000000001zM675.374 621.694C683.815 601.236 679.166 577.734 663.518 562.086L554.184 452.697C543.528 442.0410000000001 529.507 436.674 515.5659999999999 436.674C501.5739999999999 436.674 487.5759999999999 442.041 476.8969999999999 452.697L367.505 562.086C351.907 577.734 347.266 601.2370000000001 355.7 621.694C364.087 642.097 384.063 655.4490000000001 406.179 655.4490000000001H460.817V899.533C460.817 929.79 485.278 954.226 515.4609999999999 954.226C545.7179999999998 954.226 570.1539999999999 929.71 570.1539999999999 899.533V655.448H624.8469999999999C646.934 655.4490000000001 666.963 642.097 675.374 621.694z" />
    <glyph glyph-name="left-doubble"
      unicode="&#xEA46;"
      horiz-adv-x="1000.6" d=" M530.3 896.5C545.0999999999999 896.5 559.6999999999999 890 569.5999999999999 877.5C586.6999999999999 855.8000000000001 582.9999999999999 824.4000000000001 561.3 807.3000000000001L163.9 493.7C159 489.8000000000001 158.3 484.8000000000001 158.3 482.1C158.3 479.4 159 474.4 163.9 470.5L561.4 156.9C583.1 139.8 586.8 108.4 569.6999999999999 86.6999999999999S521.1999999999999 61.3 499.4999999999999 78.4L101.9 392C74.1 413.9 58.2 446.7000000000001 58.2 482.1C58.2 517.5 74.1 550.3 101.9 572.2L499.4 885.7C508.6 893 519.5 896.5 530.3 896.5z M896.3 896.5C911.1 896.5 925.7 890 935.6 877.5C952.7 855.8000000000001 948.9999999999998 824.4000000000001 927.3 807.3000000000001L529.9 493.7C525 489.8000000000001 524.3 484.8000000000001 524.3 482.1C524.3 479.4 525 474.4 529.9 470.5L927.4 156.9C949.1 139.8 952.8 108.4 935.7 86.6999999999999S887.1999999999999 61.3 865.4999999999999 78.4L467.9 392C440.1 413.9 424.2 446.7000000000001 424.2 482.1C424.2 517.5 440.1 550.3 467.9 572.2L865.4 885.7C874.6 893 885.5 896.5 896.3 896.5z" />
    <glyph glyph-name="list"
      unicode="&#xEA47;"
      horiz-adv-x="1000.637" d=" M774.9699999999999 62.4110000000001H227.329C136.572 62.4110000000001 63.036 136.0050000000001 63.036 226.5990000000001V774.028C63.036 864.704 136.572 938.266 227.329 938.266H774.971C865.675 938.266 939.265 864.758 939.265 774.028V226.6C939.264 136.005 865.674 62.4110000000001 774.9699999999999 62.4110000000001zM829.736 774.028C829.736 804.244 805.188 828.7909999999999 774.97 828.7909999999999H227.329C197.032 828.7909999999999 172.565 804.244 172.565 774.028V226.6C172.565 196.434 197.032 171.8910000000001 227.329 171.8910000000001H774.971C805.189 171.8910000000001 829.737 196.4340000000001 829.737 226.6000000000002V774.028zM501.15 609.788V664.553H720.207V609.788H501.15zM282.093 445.602H446.386V281.3640000000001H282.093V445.602zM336.8570000000001 336.1270000000001H391.6210000000001V390.8380000000001H336.8570000000001V336.1270000000001zM282.093 719.316H446.386V555.078H282.093V719.316zM336.8570000000001 609.788H391.6210000000001V664.553H336.8570000000001V609.788zM720.207 336.1270000000001H501.15V390.8380000000001H720.207V336.1270000000001z" />
    <glyph glyph-name="loading"
      unicode="&#xEA48;"
      horiz-adv-x="1000.636" d=" M495 16.275C431.107 16.275 369.0900000000001 28.803 310.6720000000001 53.5119999999999C254.2800000000001 77.3639999999999 203.649 111.496 160.185 154.9599999999999S82.589 249.055 58.737 305.448C34.028 363.865 21.5 425.882 21.5 489.775C21.5 553.668 34.028 615.685 58.737 674.103C82.589 730.4949999999999 116.721 781.126 160.185 824.5899999999999C203.649 868.054 254.28 902.186 310.6720000000001 926.0379999999998C369.09 950.747 431.1070000000001 963.275 495 963.275C558.893 963.275 620.91 950.747 679.328 926.038C735.721 902.186 786.351 868.054 829.8149999999999 824.59C873.279 781.126 907.411 730.495 931.262 674.1030000000001C955.972 615.684 968.5 553.668 968.5 489.775C968.5 453.048 938.727 423.275 902 423.275S835.5 453.048 835.5 489.775C835.5 677.527 682.752 830.275 495 830.275C307.248 830.275 154.5 677.527 154.5 489.775C154.5 302.023 307.248 149.275 495 149.275C531.727 149.275 561.5 119.502 561.5 82.775S531.727 16.275 495 16.275z" />
    <glyph glyph-name="love"
      unicode="&#xEA49;"
      horiz-adv-x="1000.637" d=" M893.367 770.064C852.175 836.735 786.24 877.381 712.5039999999999 881.582C610.1789999999999 887.394 544.7929999999999 840.8820000000001 507.8839999999999 792.134C507.3119999999999 792.87 504.8829999999999 792.87 504.3109999999999 792.134C467.4019999999999 840.8820000000001 402.039 887.393 299.6909999999999 881.582C225.9779999999999 877.381 160.0189999999999 836.735 118.8539999999999 770.0640000000001C57.612 670.876 71.36 533.908 153.935 421.1090000000001C176.549 390.255 203.611 354.3000000000001 232.693 321.8110000000001C304.164 242.2090000000001 391.236 167.8490000000001 484.587 106.7950000000001L504.312 93.8940000000001L506.11 95.0640000000001L507.885 93.8940000000001L527.636 106.7950000000001C620.959 167.8490000000001 708.0609999999999 242.2090000000001 779.5319999999999 321.8110000000001C808.6109999999999 354.3000000000001 835.646 390.254 858.261 421.1090000000001C940.859 533.908 954.61 670.876 893.367 770.064z" />
    <glyph glyph-name="mail"
      unicode="&#xEA4A;"
      horiz-adv-x="1000.637" d=" M773.405 175.2810000000001H226.585C136.02 175.2810000000001 62.54 248.6510000000001 62.54 339.2170000000001V667.149C62.54 757.689 136.019 831.14 226.585 831.14H773.4039999999999C864.0239999999999 831.14 937.45 757.742 937.45 667.149V339.216C937.451 248.6510000000001 864.025 175.2810000000001 773.405 175.2810000000001zM226.585 721.831C213.236 721.831 201.434 716.4639999999999 191.929 708.481L499.9950000000001 503.211L808.115 708.481C798.609 716.4639999999999 786.754 721.831 773.404 721.831H226.585zM828.0849999999999 612.521L499.9950000000001 393.898L171.905 612.521V393.898L335.951 448.472L187.924 300.5550000000001C197.884 290.624 211.555 284.538 226.586 284.538H773.405C788.4639999999999 284.538 802.134 290.624 812.068 300.5550000000001L664.0409999999999 448.4730000000001L828.0849999999999 393.8990000000001V612.521z" />
    <glyph glyph-name="mailbox"
      unicode="&#xEA4B;"
      horiz-adv-x="1000.637" d=" M821.377 773.548H251.459H167.87C167.87 773.548 122.429 773.21 122.429 723.665V332.7580000000001V279.2030000000001C122.429 279.2030000000001 119.871 228.2100000000001 172.117 227.5830000000001H823.258C823.258 227.5830000000001 878.163 218.1170000000001 878.163 285.5310000000001V721.928C878.163 721.928 882.463 771.039 821.377 773.548zM250.83 708.697H739.525L530.429 500.759C530.429 500.759 493.294 455.946 458.046 500.759L240.163 708.069L250.83 708.697zM804.379 333.3880000000001C804.379 333.3880000000001 804.379 294.3200000000001 773.522 294.948H230.065C230.065 294.948 190.42 286.159 189.115 332.76V655.77L407.627 449.862L447.9530000000001 410.843C447.9530000000001 410.843 495.18 361.056 540.52 410.843L804.3779999999999 669.6289999999999V333.3880000000001z" />
    <glyph glyph-name="management"
      unicode="&#xEA4C;"
      horiz-adv-x="1000.637" d=" M826.572 369.2480000000001V532.6859999999999C826.572 638.5889999999999 723.542 697.683 656.141 724.999C656.055 818.262 580.425 893.8399999999999 487.143 893.8399999999999C393.851 893.8399999999999 318.216 818.247 318.144 724.971C250.658 697.611 147.714 638.511 147.714 532.687V369.2480000000001H56.277V138.014H287.51V369.2480000000001H196.012V532.6859999999999C196.012 605.239 269.6860000000001 651.121 325.478 675.4689999999999C344.178 614.161 396.786 567.6419999999999 461.456 557.78V369.25H370.0180000000001V138.016H601.25V369.2480000000001H509.752V557.3489999999999C575.869 566.19 629.883 613.254 648.845 675.592C704.589 651.342 778.2760000000001 605.547 778.2760000000001 532.685V369.247H686.7760000000001V138.014H918.009V369.2480000000001H826.572z" />
    <glyph glyph-name="map"
      unicode="&#xEA4D;"
      horiz-adv-x="1000.637" d=" M772.873 936.238H227.766C137.43 936.238 64.234 863.0160000000001 64.234 772.759V227.8630000000001C64.234 137.5840000000001 137.429 64.4400000000001 227.766 64.4400000000001H772.872C863.208 64.4400000000001 936.403 137.5840000000001 936.403 227.8630000000001V772.759C936.405 863.016 863.209 936.238 772.873 936.238zM698.063 632.1410000000001H763.979V566.2280000000001H698.0630000000001V632.1410000000001zM302.575 829.756H368.49V763.906H302.575V829.756zM170.746 763.907H236.661V697.9929999999999H170.746V763.907zM302.575 632.1410000000001V566.2280000000001H236.66V632.1410000000001H302.575zM368.49 302.699H302.575V236.786H368.49V170.867H302.575V236.786H236.66V170.867H170.745V236.786H236.66V302.698H170.745V368.61H236.66V302.699H302.575V368.612H368.49V302.699zM368.49 566.2280000000001H434.404V500.311H368.49V566.2280000000001zM500.32 236.785H434.404V302.698H500.32V236.785zM500.32 566.2280000000001H566.233V500.311H500.32V566.2280000000001zM632.152 236.785H566.2330000000001V302.698H632.152V236.785zM632.152 632.1410000000001H566.2330000000001V697.993H632.152V632.1410000000001zM763.979 302.699H698.0630000000001V368.612H763.979V302.699zM829.893 434.399H763.979V500.311H829.893V434.399z" />
    <glyph glyph-name="media"
      unicode="&#xEA4E;"
      horiz-adv-x="1000.637" d=" M563.696 670.854L761.266 918.405L725.9939999999999 946.539L506.025 670.854H502.395L346.048 795.591L321.455 764.774L439.112 670.855H157.112V96.1470000000001H880.51V670.854H563.696zM638.543 150.031C615.171 150.031 596.252 168.92 596.252 192.261C596.252 215.574 615.1709999999999 234.521 638.5429999999999 234.521C661.8549999999999 234.521 680.7729999999999 215.574 680.7729999999999 192.261C680.773 168.919 661.854 150.031 638.543 150.031zM745.704 150.031C722.3309999999999 150.031 703.414 168.92 703.414 192.261C703.414 215.574 722.331 234.521 745.704 234.521C769.0169999999999 234.521 787.933 215.574 787.933 192.261C787.934 168.919 769.017 150.031 745.704 150.031zM812.894 278.704H224.667V610.012H812.894V278.704z" />
    <glyph glyph-name="menu"
      unicode="&#xEA4F;"
      horiz-adv-x="1000.637" d=" M900.512 757.971H383.008C354.504 757.971 331.391 781.0840000000001 331.391 809.588C331.391 838.093 354.504 861.201 383.008 861.201H900.512C929.016 861.201 952.129 838.093 952.129 809.588C952.129 781.0840000000001 929.016 757.971 900.512 757.971z M900.512 448.725H383.008C354.504 448.725 331.391 471.837 331.391 500.341C331.391 528.846 354.504 551.9590000000001 383.008 551.9590000000001H900.512C929.016 551.9590000000001 952.129 528.846 952.129 500.341C952.129 471.837 929.016 448.725 900.512 448.725z M900.512 139.482H383.008C354.504 139.482 331.391 162.5899999999999 331.391 191.0939999999999C331.391 219.5989999999999 354.504 242.713 383.008 242.713H900.512C929.016 242.713 952.129 219.5989999999999 952.129 191.0939999999999C952.129 162.59 929.016 139.482 900.512 139.482z M212.607 809.588C212.607 764.2719999999999 175.861 727.525 130.544 727.525C85.252 727.525 48.507 764.271 48.507 809.588C48.507 854.901 85.252 891.625 130.544 891.625C175.861 891.625 212.607 854.9010000000001 212.607 809.588z M212.607 500.341C212.607 455.026 175.861 418.304 130.544 418.304C85.252 418.304 48.507 455.026 48.507 500.341C48.507 545.657 85.252 582.379 130.544 582.379C175.861 582.379 212.607 545.6569999999999 212.607 500.341z M212.607 191.0940000000001C212.607 145.778 175.861 109.053 130.544 109.053C85.252 109.053 48.507 145.778 48.507 191.0939999999999C48.507 236.411 85.252 273.132 130.544 273.132C175.861 273.132 212.607 236.411 212.607 191.0940000000001z" />
    <glyph glyph-name="minimize"
      unicode="&#xEA50;"
      horiz-adv-x="1000.637" d=" M0.319 583.672H1000.319V417.006H0.319V583.672z" />
    <glyph glyph-name="modify"
      unicode="&#xEA51;"
      horiz-adv-x="1000.637" d=" M763.328 209.856L726.37 363.4020000000001C721.251 384.8480000000001 689.265 402.2150000000001 654.905 402.2150000000001H153.901C119.54 402.2150000000001 87.555 384.8480000000001 82.434 363.4020000000001L45.479 209.856C40.357 188.446 67.964 171.044 107.148 171.044H701.623C740.768 171.044 768.45 188.446 763.328 209.856zM694.312 223.437C690.0070000000001 217.7960000000001 675.6850000000001 211.712 654.72 211.712H154.049C133.122 211.712 118.835 217.7959999999999 114.42 223.437C113.085 225.2910000000001 113.271 226.1810000000001 113.457 226.813L145.738 354.7920000000001C147.964 363.7330000000001 168.261 376.687 194.8660000000001 376.687H613.865C640.508 376.687 660.843 363.7340000000001 663.068 354.7920000000001L695.35 226.813C695.499 226.1810000000001 695.723 225.29 694.312 223.437z M763.328 170.526C759.396 153.7879999999999 734.682 141.435 701.622 141.435H107.147C74.121 141.435 49.41 153.828 45.478 170.526V128.4459999999999C40.356 107.0009999999999 67.963 89.6329999999999 107.147 89.6329999999999H701.6220000000001C740.768 89.6329999999999 768.45 107.001 763.3280000000001 128.4459999999999V170.526z M934.981 895.499C900.657 929.212 868.077 897.597 868.077 897.597L844.924 872.735L844.924 872.735V872.717L750.75 771.268C742.104 762.1030000000001 736.353 756.093 736.353 756.093S736.428 755.9069999999999 736.428 755.759C736.428 755.759 627.299 634.718 628.115 633.9590000000001C618.1320000000001 641.8430000000001 597.17 625.015 597.17 625.015S525.516 555.46 524.7769999999999 551.918C512.1229999999999 531.75 515.685 514.606 515.685 514.606L469.526 465.663C428.412 421.284 401.696 357.836 389.598 324.699L373.234 307.519C368.522 302.5460000000001 368.522 294.68 373.013 290.006C377.614 285.329 385.108 285.552 389.712 290.45L406.185 307.593C491.531 329.524 531.27 380.506 531.27 380.506C531.084 380.543 531.01 380.543 530.973 380.615C533.5319999999999 383.3630000000001 669.304 530.096 809.268 678.2049999999999C809.49 678.1669999999999 809.751 678.2049999999999 810.009 678.149C810.009 678.595 815.947 685.0699999999999 824.891 694.755C892.5709999999999 766.461 942.774 819.8589999999999 942.959 820.822C975.87 858.949 934.981 895.499 934.981 895.499z" />
    <glyph glyph-name="move-top"
      unicode="&#xEA52;"
      horiz-adv-x="1000.637" d=" M500.243 826.73L114.473 440.871L362.562 441.0130000000001L363.264 0.3560000000001L637.7280000000001 0.0010000000001V441.0320000000001L886.1650000000001 440.8710000000001L500.243 826.73L500.243 826.73zM114.473 999.996H886.164V901.151H114.473V999.996z" />
    <glyph glyph-name="new"
      unicode="&#xEA53;"
      horiz-adv-x="1000.637" d=" M600.127 434.2820000000001H531.9409999999999V502.47C531.9409999999999 521.348 516.6909999999999 536.5640000000001 497.8449999999999 536.5640000000001C478.9679999999999 536.5640000000001 463.7519999999999 521.3130000000001 463.7519999999999 502.47V434.2820000000001H395.5629999999999C376.7499999999999 434.2820000000001 361.4689999999999 418.9640000000001 361.4689999999999 400.187C361.4689999999999 381.41 376.7499999999999 366.093 395.5629999999999 366.093H463.7509999999999V297.969C463.7509999999999 279.126 478.9669999999999 263.809 497.8449999999999 263.809C516.6909999999998 263.809 531.9399999999998 279.125 531.9399999999998 297.969V366.093H600.1279999999998C618.9409999999998 366.093 634.2219999999999 381.409 634.2209999999998 400.187C634.222 419.031 618.94 434.2820000000001 600.127 434.2820000000001z M934.559 663.6600000000001V686.27H65.925V663.6600000000001C48.761 660.259 35.907 645.135 35.907 627.216L58.59 150.329C58.59 129.914 62.825 113.204 83.39 113.204H917.321C937.811 113.204 942.046 129.914 942.046 150.329L964.73 627.2159999999999C964.729 645.2860000000001 951.723 660.259 934.559 663.6600000000001zM497.846 183.762C378.327 183.762 281.4220000000001 280.6669999999999 281.4220000000001 400.188C281.4220000000001 519.707 378.327 616.612 497.846 616.612C617.367 616.612 714.2719999999999 519.707 714.2719999999999 400.188C714.271 280.6670000000001 617.367 183.762 497.846 183.762z M934.559 776.4739999999999C934.559 795.682 919.059 811.332 899.629 811.332H458.278C444.442 811.7860000000001 433.7800000000001 836.662 433.7800000000001 846.267V850.423C433.7800000000001 870.915 417.1450000000001 887.474 396.73 887.474H161.65C141.159 887.474 124.525 870.915 124.525 850.423L124.6 846.267C124.6 836.663 113.789 811.332 99.875 811.332H100.103C81.201 810.953 65.926 795.454 65.926 776.4739999999999V730.351H934.56V776.4739999999999z" />
    <glyph glyph-name="newwindow"
      unicode="&#xEA54;"
      horiz-adv-x="1000.637" d=" M828.014 238.692V665.499C828.014 755.944 754.662 829.3199999999999 664.192 829.3199999999999H237.251C259.8150000000001 892.747 319.8280000000001 938.462 391.0680000000001 938.462H773.4399999999999C863.967 938.462 937.314 865.141 937.314 774.642V392.4310000000001C937.314 321.27 891.544 261.201 828.014 238.692zM773.4399999999999 610.875V228.6610000000001C773.4399999999999 138.1900000000001 700.04 64.8950000000001 609.5669999999999 64.8950000000001H227.195C136.67 64.8950000000001 63.321 138.1900000000001 63.321 228.6610000000001V610.875C63.321 701.3199999999999 136.669 774.6949999999999 227.195 774.6949999999999H609.567C700.04 774.694 773.4399999999999 701.319 773.4399999999999 610.875zM172.57 228.6600000000001C172.57 198.4680000000001 196.975 174.0360000000001 227.195 174.0360000000001H609.567C639.706 174.0360000000001 664.192 198.4680000000001 664.192 228.6600000000001V556.303H172.57V228.6600000000001zM227.195 720.07C197.055 720.07 172.57 695.5840000000001 172.57 665.445C172.57 635.278 196.975 610.82 227.195 610.82C257.4140000000001 610.82 281.82 635.278 281.82 665.445C281.8200000000001 695.585 257.3350000000001 720.07 227.195 720.07z" />
    <glyph glyph-name="next"
      unicode="&#xEA55;"
      horiz-adv-x="1000.637" d=" M62.438 500.341C62.438 441.3780000000001 73.996 384.159 96.787 330.274C118.795 278.249 150.291 231.528 190.397 191.42C230.504 151.312 277.221 119.8159999999999 329.251 97.81C383.137 75.0139999999999 440.355 63.457 499.317 63.457S615.5 75.015 669.384 97.808C721.413 119.814 768.131 151.31 808.239 191.418C848.347 231.525 879.8430000000001 278.2440000000001 901.848 330.2720000000001C924.6400000000002 384.1610000000001 936.198 441.3780000000001 936.198 500.3390000000001C936.198 559.3040000000001 924.6400000000002 616.523 901.848 670.408C879.8420000000001 722.436 848.3470000000001 769.155 808.238 809.263C768.1300000000001 849.3720000000001 721.412 880.867 669.383 902.873C615.497 925.666 558.28 937.222 499.318 937.222C440.354 937.222 383.137 925.666 329.252 902.875C277.223 880.869 230.506 849.374 190.398 809.265C150.2899999999999 769.1569999999999 118.794 722.439 96.7879999999999 670.41C73.995 616.524 62.438 559.306 62.438 500.341zM223.908 575.626C223.908 582.605 229.564 588.262 236.543 588.262H394.49C394.996 588.262 395.492 588.226 395.9820000000001 588.1669999999999H499.328V638.063C499.328 665.8720000000001 516.116 691.0509999999999 541.8480000000001 701.702C567.5780000000001 712.356 597.1870000000001 706.452 616.9230000000001 686.762L754.5300000000001 549.016C767.9950000000001 535.55 774.7270000000001 517.933 774.7270000000001 500.316C774.7270000000001 482.701 767.9950000000001 465.086 754.6220000000001 451.62L617.016 313.871C597.188 294.226 567.6719999999999 288.325 541.8489999999999 298.977C516.209 309.63 499.3759999999999 334.716 499.3759999999999 362.617V412.466H292.826C291.588 412.466 290.3590000000001 412.523 289.1380000000001 412.626H236.5420000000001C229.563 412.626 223.9070000000001 418.283 223.9070000000001 425.2630000000001V575.626z" />
    <glyph glyph-name="nextstep"
      unicode="&#xEA56;"
      horiz-adv-x="1000.637" d=" M305.955 69.4260000000001L237.302 138.039L600.287 500.339L237.302 862.638L305.955 931.252L737.197 500.338z" />
    <glyph glyph-name="notice"
      unicode="&#xEA57;"
      horiz-adv-x="1000.637" d=" M488.147 602.076L161.877 503.259L199.982 377.443L230.795 275.701L231.128 275.803C244.32 238.156 284.237 198.2620000000001 346.231 189.153C374.424 185.043 404.356 187.4250000000001 433.015 196.105C476.629 209.313 513.347 235.5070000000001 536.598 269.99C558.896 303.122 565.606 339.9410000000001 556.539 374.4220000000001L557.047 374.576C557.047 374.576 609.9060000000001 374.813 706.7660000000001 354.572C786.037 338.0320000000001 869.701 314.776 917.871 298.266C917.871 298.266 931.0570000000002 293.312 943.6960000000003 303.5709999999999C953.8070000000002 311.7009999999999 950.9560000000002 325.531 950.9560000000002 325.531L873.4570000000001 581.415L788.7100000000002 861.342C788.7100000000002 861.342 783.3860000000002 874.406 770.4580000000002 875.573C754.2470000000002 877.108 745.9980000000002 865.759 745.9980000000002 865.759C715.1080000000002 825.211 658.3890000000001 759.501 601.6390000000001 701.684C532.283 631.1179999999999 488.147 602.076 488.147 602.076zM282.066 291.228L505.923 359.089C511.701 335.727 506.998 310.789 492.048 288.3689999999999C475.929 264.5819999999999 450.617 246.3699999999999 420.55 237.2639999999999C400.7820000000001 231.2779999999999 380.116 229.6089999999999 360.62 232.5569999999999C322.534 238.1710000000001 293.215 260.578 282.066 291.228z M72.558 471.888L106.725 482.139L173.193 262.673L139.052 252.334C121.403 246.986 102.636 256.9799999999999 97.272 274.688L50.229 430.021C44.84 447.818 54.907 466.5410000000001 72.558 471.888z" />
    <glyph glyph-name="open"
      unicode="&#xEA58;"
      horiz-adv-x="1000.637" d=" M901.578 156.206C813.884 152.395 646.679 137.3780000000001 555.902 90.196C551.589 62.854 528.95 41.505 500.3170000000001 41.505C471.741 41.505 449.1020000000001 62.855 444.7890000000001 90.196C354.0680000000001 137.3780000000001 186.8080000000001 152.395 99.1150000000001 156.206C67.3990000000001 156.206 41.7360000000001 181.9250000000001 41.7360000000001 213.585V901.795C41.7360000000001 933.454 67.3990000000001 959.174 99.1150000000001 959.174C101.0750000000001 959.174 102.7570000000001 958.222 104.7180000000001 957.997C498.974 947.799 500.3180000000001 844.472 500.3180000000001 844.472S501.7190000000001 947.799 895.9190000000001 957.997C897.9370000000001 958.222 899.6170000000001 959.174 901.579 959.174C933.237 959.174 958.901 933.454 958.901 901.795V213.586C958.9 181.925 933.236 156.206 901.578 156.206zM443.052 779.4159999999999C369.087 817.071 246.7080000000001 832.7049999999999 156.437 839.373V267.7700000000001C310.25 259.9810000000001 396.319 236.9500000000001 443.052 213.5840000000001V779.4159999999999zM844.255 839.373C753.928 832.7049999999999 631.605 817.071 557.6959999999999 779.4159999999999V213.5849999999999C604.3159999999999 236.95 690.3839999999999 259.9809999999999 844.2549999999999 267.771V839.373zM786.987 729.77V615.069C786.987 615.069 614.963 615.069 614.963 557.689V672.3910000000001C614.963 672.3910000000001 614.963 729.77 786.987 729.77zM786.987 500.368V385.665C786.987 385.665 614.963 385.665 614.963 328.286V442.99C614.963 442.99 614.963 500.368 786.987 500.368zM385.673 672.3910000000001V557.6890000000001C385.673 615.069 213.76 615.069 213.76 615.069V729.77C385.673 729.77 385.673 672.3910000000001 385.673 672.3910000000001zM385.673 442.99V328.2870000000001C385.673 385.6660000000001 213.76 385.6660000000001 213.76 385.6660000000001V500.368C385.673 500.368 385.673 442.99 385.673 442.99z" />
    <glyph glyph-name="opset"
      unicode="&#xEA59;"
      horiz-adv-x="1000.637" d=" M98.751 232.842 M468.769 442.382L522.462 417.1570000000001L470.993 305.827L478.368 253.9790000000001L378.632 119.7770000000001L334.173 140.542L372.924 303.129L417.3 330.795z M751.804 747.659L596.749 416.668L430.249 494.427L585.3040000000001 825.2139999999999C606.7130000000001 871.293 661.4080000000001 891.149 707.4520000000001 869.7C753.445 848.319 773.375 793.596 751.804 747.659zM654.563 799.535C658.535 808.171 654.902 818.11 646.359 822.231C637.859 826.177 627.6890000000001 822.462 623.798 813.987L503.37 555.5889999999999C499.397 547.2370000000001 503.031 537.149 511.56 533.123C520.074 529.029 530.162 532.7239999999999 534.107 541.415L654.563 799.535zM709.324 792.796C700.7829999999999 796.7819999999999 690.803 793.108 686.7769999999999 784.566L566.363 526.357C562.296 517.8009999999999 566.0100000000001 507.72 574.6070000000001 503.768C583.027 499.7689999999999 593.263 503.456 597.142 511.984L717.4870000000001 770.275C721.581 778.708 717.894 788.85 709.324 792.796z M889.816 326.707C868.677 281.564 814.4970000000001 262.101 768.9000000000001 283.44V283.467C739.5340000000001 297.102 679.7940000000001 328.374 607.364 365.646L678.764 518.778L845.2370000000001 447.2150000000001L845.2370000000001 447.2150000000001C890.899 425.929 910.832 372.0460000000001 889.816 326.707zM823.786 397.7820000000001C805.496 406.217 783.8699999999999 398.35 775.327 380.0880000000001C766.813 361.9060000000001 774.731 340.1720000000002 792.941 331.6440000000001C811.2040000000001 323.1830000000001 832.883 331.0470000000002 841.4390000000001 349.3510000000001C849.9 367.56 842.037 389.2530000000001 823.786 397.7820000000001z M214.682 773.936C193.178 766.126 174.291 754.33 158.469 739.822L274.123 685.9C295.029 676.0699999999999 304.168 651.068 294.434 630.135L273.946 586.096C264.253 565.215 239.115 556.077 218.221 565.846L103.977 619.1379999999999C103.583 598.855 106.647 578.232 113.997 558.002C145.777 470.6769999999999 242.478 425.563 329.875 457.438C417.3 489.199 462.315 585.8109999999999 430.507 673.292C398.779 760.615 302.135 805.731 214.682 773.936z" />
    <glyph glyph-name="opt-row"
      unicode="&#xEA5A;"
      horiz-adv-x="1000.637" d=" M845.427 934.784H155.138C105.882 934.784 65.811 894.722 65.811 845.48V155.22C65.811 105.9640000000001 105.882 65.894 155.138 65.894H845.427C894.264 65.894 934.073 105.2810000000001 934.755 153.951L934.826 155.2420000000001V845.48C934.826 894.722 894.722 934.784 845.427 934.784zM500.347 320.685L249.555 579.9929999999999H751.082L500.347 320.685z" />
    </font>
</defs>
</svg>
